<?xml-stylesheet type="text/css" href="https://www.processon.com/themes/default/mind/icons/icons.css" ?><svg xmlns="http://www.w3.org/2000/svg" style="position:absolute;left:0;top:0;width:658px;height:1099px;background:#f7f7f7;z-index:999" id="mind-svg-con" width="658" height="1099" version="1.1" xlink="http://www.w3.org/1999/xlink"><g id="svgbackgroundid"><rect width="658" height="1099" x="0" y="0" fill="#F7F7F7"/></g><g id="sdjakdjak5"><g class="svg-topic-con" transform="translate(-9872, -9373.000396728516) translate(0.5,0.5)"><path id="line_f6fa5b0908e3" fill="none" stroke="#FD5155" stroke-width="3" d="M 10000 9935.50039100647 L 10093 9935.50039100647 C 10133 9935.50039100647 10133 9616.5 10198 9616.5 L 10290 9616.5" part="right" sub="true"/><path id="line_e40a39e36151" fill="none" stroke="#FA5465" stroke-width="3" d="M 10000 9935.50039100647 L 10093 9935.50039100647 C 10133 9935.50039100647 10133 9975.5 10198 9975.5 L 10290 9975.5" part="right" sub="true"/><path id="line_6b6eff98ebaf" fill="none" stroke="#7549C5" stroke-width="3" d="M 10000 9935.50039100647 L 10093 9935.50039100647 C 10133 9935.50039100647 10133 10220 10198 10220 L 10290 10220" part="right" sub="true"/><path id="line_364340e7a906" fill="none" stroke="#FCB52A" stroke-width="3" d="M 10000 9935.50039100647 L 10093 9935.50039100647 C 10133 9935.50039100647 10133 10395 10198 10395 L 10258 10395" part="right" sub="true"/></g></g><g id="364340e7a906"><rect style="fill:transparent;stroke:none" width="60" height="29" x="326" y="992.5" rx="1" ry="1"/><g><text fill="#0D0B22" align="top" anchor="start" font-family="微软雅黑" font-size="16" font-weight="normal" text-anchor="start"><tspan x="340" y="1013.375"><tspan>其他</tspan></tspan></text></g></g><g id="162ed43c3104"><rect style="fill:transparent;stroke:none" width="82" height="29" x="462" y="947" rx="1" ry="1"/><g><text fill="#0D0B22" align="top" anchor="start" font-family="微软雅黑" font-size="13" font-weight="400" text-anchor="start"><tspan x="471" y="967.088"><tspan>RabbitMQ</tspan></tspan></text></g></g><g id="a3c1c55c959a"><rect style="fill:transparent;stroke:none" width="74" height="29" x="462" y="992.888" rx="1" ry="1"/><g><text fill="#0D0B22" align="top" anchor="start" font-family="微软雅黑" font-size="13" font-weight="400" text-anchor="start"><tspan x="471" y="1012.975"><tspan>Logstash</tspan></tspan></text></g></g><g id="5261d3d507ba"><rect style="fill:transparent;stroke:none" width="61" height="29" x="462" y="1038.775" rx="1" ry="1"/><g><text fill="#0D0B22" align="top" anchor="start" font-family="微软雅黑" font-size="13" font-weight="400" text-anchor="start"><tspan x="471" y="1058.863"><tspan>Kibana</tspan></tspan></text></g></g><g id="6b6eff98ebaf"><rect style="fill:transparent;stroke:none" width="92" height="29" x="326" y="816.438" rx="1" ry="1"/><g><text fill="#0D0B22" align="top" anchor="start" font-family="微软雅黑" font-size="16" font-weight="normal" text-anchor="start"><tspan x="340" y="837.312"><tspan>运维部署</tspan></tspan></text></g></g><g id="12d9b463db6d"><rect style="fill:transparent;stroke:none" width="50" height="29" x="494" y="748" rx="1" ry="1"/><g><text fill="#0D0B22" align="top" anchor="start" font-family="微软雅黑" font-size="13" font-weight="400" text-anchor="start"><tspan x="503" y="768.087"><tspan>Linux</tspan></tspan></text></g></g><g id="49aa790b7138"><rect style="fill:transparent;stroke:none" width="62" height="29" x="494" y="793.888" rx="1" ry="1"/><g><text fill="#0D0B22" align="top" anchor="start" font-family="微软雅黑" font-size="13" font-weight="400" text-anchor="start"><tspan x="503" y="813.975"><tspan>Docker</tspan></tspan></text></g></g><g id="3526922a83d3"><rect style="fill:transparent;stroke:none" width="55" height="29" x="494" y="839.775" rx="1" ry="1"/><g><text fill="#0D0B22" align="top" anchor="start" font-family="微软雅黑" font-size="13" font-weight="400" text-anchor="start"><tspan x="503" y="859.862"><tspan>Nginx</tspan></tspan></text></g></g><g id="4ca72a5e16ec"><rect style="fill:transparent;stroke:none" width="63" height="29" x="494" y="885.663" rx="1" ry="1"/><g><text fill="#0D0B22" align="top" anchor="start" font-family="微软雅黑" font-size="13" font-weight="400" text-anchor="start"><tspan x="503" y="905.75"><tspan>Jenkins</tspan></tspan></text></g></g><g id="e40a39e36151"><rect style="fill:transparent;stroke:none" width="92" height="30" x="326" y="572.325" rx="1" ry="1"/><g><text fill="#0D0B22" align="top" anchor="start" font-family="微软雅黑" font-size="16" font-weight="normal" text-anchor="start"><tspan x="340" y="593.2"><tspan>数据存储</tspan></tspan></text></g></g><g id="03fc9191aa0e"><rect style="fill:transparent;stroke:none" width="62" height="29" x="494" y="458" rx="1" ry="1"/><g><text fill="#0D0B22" align="top" anchor="start" font-family="微软雅黑" font-size="13" font-weight="400" text-anchor="start"><tspan x="503" y="478.087"><tspan>MySQL</tspan></tspan></text></g></g><g id="7f398dd35a20"><rect style="fill:transparent;stroke:none" width="52" height="29" x="494" y="503.887" rx="1" ry="1"/><g><text fill="#0D0B22" align="top" anchor="start" font-family="微软雅黑" font-size="13" font-weight="400" text-anchor="start"><tspan x="503" y="523.975"><tspan>Redis</tspan></tspan></text></g></g><g id="8ab32a1b242f"><rect style="fill:transparent;stroke:none" width="97" height="29" x="494" y="549.775" rx="1" ry="1"/><g><text fill="#0D0B22" align="top" anchor="start" font-family="微软雅黑" font-size="13" font-weight="400" text-anchor="start"><tspan x="503" y="569.862"><tspan>Elasticsearch</tspan></tspan></text></g></g><g id="bb8ec7a53bda"><rect style="fill:transparent;stroke:none" width="82" height="29" x="494" y="595.662" rx="1" ry="1"/><g><text fill="#0D0B22" align="top" anchor="start" font-family="微软雅黑" font-size="13" font-weight="400" text-anchor="start"><tspan x="503" y="615.75"><tspan>MongoDB</tspan></tspan></text></g></g><g id="b201c9489c81"><rect style="fill:transparent;stroke:none" width="44" height="29" x="494" y="641.55" rx="1" ry="1"/><g><text fill="#0D0B22" align="top" anchor="start" font-family="微软雅黑" font-size="13" font-weight="400" text-anchor="start"><tspan x="503" y="661.637"><tspan>OSS</tspan></tspan></text></g></g><g id="41d7985212c6"><rect style="fill:transparent;stroke:none" width="57" height="29" x="494" y="687.438" rx="1" ry="1"/><g><text fill="#0D0B22" align="top" anchor="start" font-family="微软雅黑" font-size="13" font-weight="400" text-anchor="start"><tspan x="503" y="707.525"><tspan>MinIO</tspan></tspan></text></g></g><g id="f6fa5b0908e3"><rect style="fill:transparent;stroke:none" width="92" height="30" x="326" y="213.162" rx="1" ry="1"/><g><text fill="#0D0B22" align="top" anchor="start" font-family="微软雅黑" font-size="16" font-weight="normal" text-anchor="start"><tspan x="340" y="234.037"><tspan>项目框架</tspan></tspan></text></g></g><g id="2bd29ab68d85"><rect style="fill:transparent;stroke:none" width="92" height="29" x="494" y="30" rx="1" ry="1"/><g><text fill="#0D0B22" align="top" anchor="start" font-family="微软雅黑" font-size="13" font-weight="400" text-anchor="start"><tspan x="503" y="50.087"><tspan>Spring Boot</tspan></tspan></text></g></g><g id="9c708fe5be38"><rect style="fill:transparent;stroke:none" width="112" height="29" x="494" y="75.887" rx="1" ry="1"/><g><text fill="#0D0B22" align="top" anchor="start" font-family="微软雅黑" font-size="13" font-weight="400" text-anchor="start"><tspan x="503" y="95.975"><tspan>Spring Security</tspan></tspan></text></g></g><g id="57063cec95e4"><rect style="fill:transparent;stroke:none" width="67" height="29" x="494" y="121.775" rx="1" ry="1"/><g><text fill="#0D0B22" align="top" anchor="start" font-family="微软雅黑" font-size="13" font-weight="400" text-anchor="start"><tspan x="503" y="141.863"><tspan>MyBatis</tspan></tspan></text></g></g><g id="5feec0809fa9"><rect style="fill:transparent;stroke:none" width="134" height="29" x="494" y="167.662" rx="1" ry="1"/><g><text fill="#0D0B22" align="top" anchor="start" font-family="微软雅黑" font-size="13" font-weight="400" text-anchor="start"><tspan x="503" y="187.75"><tspan>MyBatis Generator</tspan></tspan></text></g></g><g id="1d3538e0c71e"><rect style="fill:transparent;stroke:none" width="90" height="29" x="494" y="213.55" rx="1" ry="1"/><g><text fill="#0D0B22" align="top" anchor="start" font-family="微软雅黑" font-size="13" font-weight="400" text-anchor="start"><tspan x="503" y="233.637"><tspan>PageHelper</tspan></tspan></text></g></g><g id="0194d979384e"><rect style="fill:transparent;stroke:none" width="72" height="29" x="494" y="259.437" rx="1" ry="1"/><g><text fill="#0D0B22" align="top" anchor="start" font-family="微软雅黑" font-size="13" font-weight="400" text-anchor="start"><tspan x="503" y="279.525"><tspan>Swagger</tspan></tspan></text></g></g><g id="a7b26336eda8"><rect style="fill:transparent;stroke:none" width="53" height="29" x="494" y="305.325" rx="1" ry="1"/><g><text fill="#0D0B22" align="top" anchor="start" font-family="微软雅黑" font-size="13" font-weight="400" text-anchor="start"><tspan x="503" y="325.412"><tspan>Druid</tspan></tspan></text></g></g><g id="f37fc224c32c"><rect style="fill:transparent;stroke:none" width="69" height="29" x="494" y="351.212" rx="1" ry="1"/><g><text fill="#0D0B22" align="top" anchor="start" font-family="微软雅黑" font-size="13" font-weight="400" text-anchor="start"><tspan x="503" y="371.3"><tspan>Lombok</tspan></tspan></text></g></g><g id="8c3fa956c0d0"><rect style="fill:transparent;stroke:none" width="61" height="29" x="494" y="397.1" rx="1" ry="1"/><g><text fill="#0D0B22" align="top" anchor="start" font-family="微软雅黑" font-size="13" font-weight="400" text-anchor="start"><tspan x="503" y="417.187"><tspan>Hutool</tspan></tspan></text></g></g><g id="sdjakdjak0" transform="translate(326, 947)"><g id="subline_364340e7a906" transform="translate(0.5,-0.5)"><path id="line_162ed43c3104" fill="none" stroke="#FCB52A" stroke-linecap="square" stroke-width="3" d="M 60 76 L 60 76 M 60 76 C 106 76 98 30 136 30 L 218 30" p="364340e7a906"/><path id="line_a3c1c55c959a" fill="none" stroke="#FCB52A" stroke-linecap="square" stroke-width="3" d="M 60 76 L 60 76 M 60 76 C 106 76 98 76 136 76 L 210 76" p="364340e7a906"/><path id="line_5261d3d507ba" fill="none" stroke="#FCB52A" stroke-linecap="square" stroke-width="3" d="M 60 76 L 60 76 M 60 76 C 106 76 98 122 136 122 L 197 122" p="364340e7a906"/></g></g><g id="sdjakdjak1" transform="translate(326, 748)"><g id="subline_6b6eff98ebaf" transform="translate(0.5,-0.5)"><path id="line_12d9b463db6d" fill="none" stroke="#7549C5" stroke-linecap="square" stroke-width="3" d="M 92 100 L 92 100 M 92 100 C 138 100 130 30 168 30 L 218 30" p="6b6eff98ebaf"/><path id="line_49aa790b7138" fill="none" stroke="#7549C5" stroke-linecap="square" stroke-width="3" d="M 92 100 L 92 100 M 92 100 C 138 100 130 76 168 76 L 230 76" p="6b6eff98ebaf"/><path id="line_3526922a83d3" fill="none" stroke="#7549C5" stroke-linecap="square" stroke-width="3" d="M 92 100 L 92 100 M 92 100 C 138 100 130 122 168 122 L 223 122" p="6b6eff98ebaf"/><path id="line_4ca72a5e16ec" fill="none" stroke="#7549C5" stroke-linecap="square" stroke-width="3" d="M 92 100 L 92 100 M 92 100 C 138 100 130 168 168 168 L 231 168" p="6b6eff98ebaf"/></g></g><g id="sdjakdjak2" transform="translate(326, 457.99999237060547)"><g id="subline_e40a39e36151" transform="translate(0.5,-0.5)"><path id="line_03fc9191aa0e" fill="none" stroke="#FA5465" stroke-linecap="square" stroke-width="3" d="M 92 146 L 92 146 M 92 146 C 138 146 130 30 168 30 L 230 30" p="e40a39e36151"/><path id="line_7f398dd35a20" fill="none" stroke="#FA5465" stroke-linecap="square" stroke-width="3" d="M 92 146 L 92 146 M 92 146 C 138 146 130 76 168 76 L 220 76" p="e40a39e36151"/><path id="line_8ab32a1b242f" fill="none" stroke="#FA5465" stroke-linecap="square" stroke-width="3" d="M 92 146 L 92 146 M 92 146 C 138 146 130 122 168 122 L 265 122" p="e40a39e36151"/><path id="line_bb8ec7a53bda" fill="none" stroke="#FA5465" stroke-linecap="square" stroke-width="3" d="M 92 146 L 92 146 M 92 146 C 138 146 130 168 168 168 L 250 168" p="e40a39e36151"/><path id="line_b201c9489c81" fill="none" stroke="#FA5465" stroke-linecap="square" stroke-width="3" d="M 92 146 L 92 146 M 92 146 C 138 146 130 214 168 214 L 212 214" p="e40a39e36151"/><path id="line_41d7985212c6" fill="none" stroke="#FA5465" stroke-linecap="square" stroke-width="3" d="M 92 146 L 92 146 M 92 146 C 138 146 130 259 168 259 L 225 259" p="e40a39e36151"/></g></g><g id="sdjakdjak3" transform="translate(326, 30)"><g id="subline_f6fa5b0908e3" transform="translate(0.5,-0.5)"><path id="line_2bd29ab68d85" fill="none" stroke="#FD5155" stroke-linecap="square" stroke-width="3" d="M 92 215 L 92 215 M 92 215 C 138 215 130 30 168 30 L 260 30" p="f6fa5b0908e3"/><path id="line_9c708fe5be38" fill="none" stroke="#FD5155" stroke-linecap="square" stroke-width="3" d="M 92 215 L 92 215 M 92 215 C 138 215 130 76 168 76 L 280 76" p="f6fa5b0908e3"/><path id="line_57063cec95e4" fill="none" stroke="#FD5155" stroke-linecap="square" stroke-width="3" d="M 92 215 L 92 215 M 92 215 C 138 215 130 122 168 122 L 235 122" p="f6fa5b0908e3"/><path id="line_5feec0809fa9" fill="none" stroke="#FD5155" stroke-linecap="square" stroke-width="3" d="M 92 215 L 92 215 M 92 215 C 138 215 130 168 168 168 L 302 168" p="f6fa5b0908e3"/><path id="line_1d3538e0c71e" fill="none" stroke="#FD5155" stroke-linecap="square" stroke-width="3" d="M 92 215 L 92 215 M 92 215 C 138 215 130 214 168 214 L 258 214" p="f6fa5b0908e3"/><path id="line_0194d979384e" fill="none" stroke="#FD5155" stroke-linecap="square" stroke-width="3" d="M 92 215 L 92 215 M 92 215 C 138 215 130 259 168 259 L 240 259" p="f6fa5b0908e3"/><path id="line_a7b26336eda8" fill="none" stroke="#FD5155" stroke-linecap="square" stroke-width="3" d="M 92 215 L 92 215 M 92 215 C 138 215 130 305 168 305 L 221 305" p="f6fa5b0908e3"/><path id="line_f37fc224c32c" fill="none" stroke="#FD5155" stroke-linecap="square" stroke-width="3" d="M 92 215 L 92 215 M 92 215 C 138 215 130 351 168 351 L 237 351" p="f6fa5b0908e3"/><path id="line_8c3fa956c0d0" fill="none" stroke="#FD5155" stroke-linecap="square" stroke-width="3" d="M 92 215 L 92 215 M 92 215 C 138 215 130 397 168 397 L 229 397" p="f6fa5b0908e3"/></g></g><g id="root"><rect style="fill:#fff;stroke:none" width="196" height="68" x="30" y="529" rx="7" ry="7"/><g><text fill="#2A2E36" align="top" anchor="start" font-family="微软雅黑" font-size="24" font-weight="normal" text-anchor="start"><tspan x="68" y="570.725"><tspan>后端技术栈</tspan></tspan></text></g></g></svg>