<?xml-stylesheet type="text/css" href="https://www.processon.com/themes/default/mind/icons/icons.css" ?><svg xmlns="http://www.w3.org/2000/svg" style="position:absolute;left:0;top:0;width:676.288px;height:1097.55px;background:#f7f7f7;z-index:999" id="mind-svg-con" width="676.288" height="1097.55" version="1.1" xlink="http://www.w3.org/1999/xlink"><g id="svgbackgroundid"><rect width="676.288" height="1097.55" x="0" y="0" fill="#F7F7F7"/></g><g id="sdjakdjak8"><g class="svg-topic-con" transform="translate(-9884, -9375.000366210938) translate(0.5,0.5)"><path id="line_262a9a176bb6" fill="none" stroke="#02ACF4" stroke-width="3" d="M 10000 9935.500389099121 L 10081 9935.500389099121 C 10121 9935.500389099121 10121 9480.500366210938 10186 9480.500366210938 L 10268 9480.500366210938" part="right" sub="true"/><path id="line_20cbf7cd9806" fill="none" stroke="#0D7C82" stroke-width="3" d="M 10000 9935.500389099121 L 10081 9935.500389099121 C 10121 9935.500389099121 10121 9610.500396728516 10186 9610.500396728516 L 10275 9610.500396728516" part="right" sub="true"/><path id="line_1b6837c9b2d6" fill="none" stroke="#0FBAB0" stroke-width="3" d="M 10000 9935.500389099121 L 10081 9935.500389099121 C 10121 9935.500389099121 10121 9717.000396728516 10186 9717.000396728516 L 10278 9717.000396728516" part="right" sub="true"/><path id="line_493e39e43892" fill="none" stroke="#0F80C4" stroke-width="3" d="M 10000 9935.500389099121 L 10081 9935.500389099121 C 10121 9935.500389099121 10121 9824.000381469727 10186 9824.000381469727 L 10304 9824.000381469727" part="right" sub="true"/><path id="line_2f1828c3c51b" fill="none" stroke="#FCB52A" stroke-width="3" d="M 10000 9935.500389099121 L 10081 9935.500389099121 C 10121 9935.500389099121 10121 9999.500389099121 10186 9999.500389099121 L 10268 9999.500389099121" part="right" sub="true"/><path id="line_8ef26246e8c1" fill="none" stroke="#FD5155" stroke-width="3" d="M 10000 9935.500389099121 L 10081 9935.500389099121 C 10121 9935.500389099121 10121 10174.500396728516 10186 10174.500396728516 L 10278 10174.500396728516" part="right" sub="true"/><path id="line_7206cdd8623f" fill="none" stroke="#BE49C4" stroke-width="3" d="M 10000 9935.500389099121 L 10081 9935.500389099121 C 10121 9935.500389099121 10121 10349.500396728516 10186 10349.500396728516 L 10246 10349.500396728516" part="right" sub="true"/></g></g><g id="7206cdd8623f"><rect style="fill:transparent;stroke:none" width="60" height="30" x="302" y="944.388" rx="1" ry="1"/><g><text fill="#0D0B22" align="top" anchor="start" font-family="微软雅黑" font-size="16" font-weight="normal" text-anchor="start"><tspan x="316" y="965.263"><tspan>其他</tspan></tspan></text></g></g><g id="1fd58fcd238d"><rect style="fill:transparent;stroke:none" width="78" height="29" x="438" y="853" rx="1" ry="1"/><g><text fill="#0D0B22" align="top" anchor="start" font-family="微软雅黑" font-size="13" font-weight="400" text-anchor="start"><tspan x="447" y="873.088"><tspan>Redis集群</tspan></tspan></text></g></g><g id="687cb8e826b7"><rect style="fill:transparent;stroke:none" width="57" height="29" x="438" y="898.888" rx="1" ry="1"/><g><text fill="#0D0B22" align="top" anchor="start" font-family="微软雅黑" font-size="13" font-weight="400" text-anchor="start"><tspan x="447" y="918.975"><tspan>JWT库</tspan></tspan></text></g></g><g id="d0aa3e8c63d3"><rect style="fill:transparent;stroke:none" width="134" height="29" x="438" y="944.775" rx="1" ry="1"/><g><text fill="#0D0B22" align="top" anchor="start" font-family="微软雅黑" font-size="13" font-weight="400" text-anchor="start"><tspan x="447" y="964.863"><tspan>RabbitMQ即时通讯</tspan></tspan></text></g></g><g id="ef5869bbe906"><rect style="fill:transparent;stroke:none" width="147" height="29" x="438" y="990.663" rx="1" ry="1"/><g><text fill="#0D0B22" align="top" anchor="start" font-family="微软雅黑" font-size="13" font-weight="400" text-anchor="start"><tspan x="447" y="1010.75"><tspan>SQL查询Elasticsearch</tspan></tspan></text></g></g><g id="3a6c831af45d"><rect style="fill:transparent;stroke:none" width="154" height="29" x="438" y="1036.55" rx="1" ry="1"/><g><text fill="#0D0B22" align="top" anchor="start" font-family="微软雅黑" font-size="13" font-weight="400" text-anchor="start"><tspan x="447" y="1056.638"><tspan>Jenkins自动化部署技巧</tspan></tspan></text></g></g><g id="8ef26246e8c1"><rect style="fill:transparent;stroke:none" width="92" height="30" x="302" y="769.55" rx="1" ry="1"/><g><text fill="#0D0B22" align="top" anchor="start" font-family="微软雅黑" font-size="16" font-weight="normal" text-anchor="start"><tspan x="316" y="790.425"><tspan>定时任务</tspan></tspan></text></g></g><g id="5bb37465054a"><rect style="fill:transparent;stroke:none" width="60" height="29" x="470" y="747" rx="1" ry="1"/><g><text fill="#0D0B22" align="top" anchor="start" font-family="微软雅黑" font-size="13" font-weight="400" text-anchor="start"><tspan x="479" y="767.088"><tspan>Quartz</tspan></tspan></text></g></g><g id="6dd63b024e8c"><rect style="fill:transparent;stroke:none" width="78" height="29" x="470" y="792.888" rx="1" ry="1"/><g><text fill="#0D0B22" align="top" anchor="start" font-family="微软雅黑" font-size="13" font-weight="400" text-anchor="start"><tspan x="479" y="812.975"><tspan>PowerJob</tspan></tspan></text></g></g><g id="2f1828c3c51b"><rect style="fill:transparent;stroke:none" width="82" height="30" x="302" y="594.388" rx="1" ry="1"/><g><text fill="#0D0B22" align="top" anchor="start" font-family="微软雅黑" font-size="16" font-weight="normal" text-anchor="start"><tspan x="316" y="615.263"><tspan>Docker</tspan></tspan></text></g></g><g id="4bb56e0f6370"><rect style="fill:transparent;stroke:none" width="70" height="29" x="460.288" y="503" rx="1" ry="1"/><g><text fill="#0D0B22" align="top" anchor="start" font-family="微软雅黑" font-size="13" font-weight="400" text-anchor="start"><tspan x="469.288" y="523.088"><tspan>安全访问</tspan></tspan></text></g></g><g id="8dfdd261754e"><rect style="fill:transparent;stroke:none" width="144" height="29" x="460.288" y="548.888" rx="1" ry="1"/><g><text fill="#0D0B22" align="top" anchor="start" font-family="微软雅黑" font-size="13" font-weight="400" text-anchor="start"><tspan x="469.288" y="568.975"><tspan>fabric8io Maven插件</tspan></tspan></text></g></g><g id="0bb338389f9f"><rect style="fill:transparent;stroke:none" width="186" height="29" x="460.288" y="594.775" rx="1" ry="1"/><g><text fill="#0D0B22" align="top" anchor="start" font-family="微软雅黑" font-size="13" font-weight="400" text-anchor="start"><tspan x="469.288" y="614.863"><tspan>SpringBoot官方 Maven插件</tspan></tspan></text></g></g><g id="a4de0b1014dd"><rect style="fill:transparent;stroke:none" width="81" height="29" x="460.288" y="640.663" rx="1" ry="1"/><g><text fill="#0D0B22" align="top" anchor="start" font-family="微软雅黑" font-size="13" font-weight="400" text-anchor="start"><tspan x="469.288" y="660.75"><tspan>Dockerfile</tspan></tspan></text></g></g><g id="bb89ec3cb0cc"><rect style="fill:transparent;stroke:none" width="114" height="29" x="460.288" y="686.55" rx="1" ry="1"/><g><text fill="#0D0B22" align="top" anchor="start" font-family="微软雅黑" font-size="13" font-weight="400" text-anchor="start"><tspan x="469.288" y="706.638"><tspan>Harbor镜像仓库</tspan></tspan></text></g></g><g id="493e39e43892"><rect style="fill:transparent;stroke:none" width="118" height="30" x="302" y="418.55" rx="1" ry="1"/><g><text fill="#0D0B22" align="top" anchor="start" font-family="微软雅黑" font-size="16" font-weight="normal" text-anchor="start"><tspan x="316" y="439.425"><tspan>API文档生成</tspan></tspan></text></g></g><g id="3ceecec383e8"><rect style="fill:transparent;stroke:none" width="61" height="29" x="495.75" y="396" rx="1" ry="1"/><g><text fill="#0D0B22" align="top" anchor="start" font-family="微软雅黑" font-size="13" font-weight="400" text-anchor="start"><tspan x="504.75" y="416.088"><tspan>Knife4j</tspan></tspan></text></g></g><g id="7f3172c5a60a"><rect style="fill:transparent;stroke:none" width="46" height="29" x="495.75" y="441.888" rx="1" ry="1"/><g><text fill="#0D0B22" align="top" anchor="start" font-family="微软雅黑" font-size="13" font-weight="400" text-anchor="start"><tspan x="504.75" y="461.975"><tspan>YApi</tspan></tspan></text></g></g><g id="1b6837c9b2d6"><rect style="fill:transparent;stroke:none" width="92" height="30" x="302" y="311.55" rx="1" ry="1"/><g><text fill="#0D0B22" align="top" anchor="start" font-family="微软雅黑" font-size="16" font-weight="normal" text-anchor="start"><tspan x="316" y="332.425"><tspan>日志收集</tspan></tspan></text></g></g><g id="a569631a3fcf"><rect style="fill:transparent;stroke:none" width="65" height="29" x="470" y="289" rx="1" ry="1"/><g><text fill="#0D0B22" align="top" anchor="start" font-family="微软雅黑" font-size="13" font-weight="400" text-anchor="start"><tspan x="479" y="309.088"><tspan>Fluentd</tspan></tspan></text></g></g><g id="12832e1a0014"><rect style="fill:transparent;stroke:none" width="67" height="29" x="470" y="334.888" rx="1" ry="1"/><g><text fill="#0D0B22" align="top" anchor="start" font-family="微软雅黑" font-size="13" font-weight="400" text-anchor="start"><tspan x="479" y="354.975"><tspan>Filebeat</tspan></tspan></text></g></g><g id="20cbf7cd9806"><rect style="fill:transparent;stroke:none" width="89" height="30" x="302" y="205.55" rx="1" ry="1"/><g><text fill="#0D0B22" align="top" anchor="start" font-family="微软雅黑" font-size="16" font-weight="normal" text-anchor="start"><tspan x="316" y="226.425"><tspan>MyBatis</tspan></tspan></text></g></g><g id="a624070c2c7e"><rect style="fill:transparent;stroke:none" width="98" height="29" x="466.612" y="183" rx="1" ry="1"/><g><text fill="#0D0B22" align="top" anchor="start" font-family="微软雅黑" font-size="13" font-weight="400" text-anchor="start"><tspan x="475.612" y="203.088"><tspan>MyBatis-Plus</tspan></tspan></text></g></g><g id="42f5f78d4022"><rect style="fill:transparent;stroke:none" width="101" height="29" x="466.612" y="228.888" rx="1" ry="1"/><g><text fill="#0D0B22" align="top" anchor="start" font-family="微软雅黑" font-size="13" font-weight="400" text-anchor="start"><tspan x="475.612" y="248.975"><tspan>Dynamic SQL</tspan></tspan></text></g></g><g id="262a9a176bb6"><rect style="fill:transparent;stroke:none" width="82" height="29" x="302" y="75.5" rx="1" ry="1"/><g><text fill="#0D0B22" align="top" anchor="start" font-family="微软雅黑" font-size="16" font-weight="normal" text-anchor="start"><tspan x="316" y="96.375"><tspan>MySQL</tspan></tspan></text></g></g><g id="eb641bc596ea"><rect style="fill:transparent;stroke:none" width="70" height="29" x="460.588" y="30" rx="1" ry="1"/><g><text fill="#0D0B22" align="top" anchor="start" font-family="微软雅黑" font-size="13" font-weight="400" text-anchor="start"><tspan x="469.588" y="50.088"><tspan>主从复制</tspan></tspan></text></g></g><g id="84dbb8c00b14"><rect style="fill:transparent;stroke:none" width="102" height="29" x="460.588" y="75.888" rx="1" ry="1"/><g><text fill="#0D0B22" align="top" anchor="start" font-family="微软雅黑" font-size="13" font-weight="400" text-anchor="start"><tspan x="469.588" y="95.975"><tspan>读写分离Gaea</tspan></tspan></text></g></g><g id="83766f795db1"><rect style="fill:transparent;stroke:none" width="105" height="29" x="460.588" y="121.775" rx="1" ry="1"/><g><text fill="#0D0B22" align="top" anchor="start" font-family="微软雅黑" font-size="13" font-weight="400" text-anchor="start"><tspan x="469.588" y="141.863"><tspan>数据同步Canel</tspan></tspan></text></g></g><g id="sdjakdjak0" transform="translate(302, 853.0000305175781)"><g id="subline_7206cdd8623f" transform="translate(0.5,-0.5)"><path id="line_1fd58fcd238d" fill="none" stroke="#BE49C4" stroke-linecap="square" stroke-width="3" d="M 60 122 L 60 122 M 60 122 C 106 122 98 30 136 30 L 214 30" p="7206cdd8623f"/><path id="line_687cb8e826b7" fill="none" stroke="#BE49C4" stroke-linecap="square" stroke-width="3" d="M 60 122 L 60 122 M 60 122 C 106 122 98 76 136 76 L 193 76" p="7206cdd8623f"/><path id="line_d0aa3e8c63d3" fill="none" stroke="#BE49C4" stroke-linecap="square" stroke-width="3" d="M 60 122 L 60 122 M 60 122 C 106 122 98 122 136 122 L 270 122" p="7206cdd8623f"/><path id="line_ef5869bbe906" fill="none" stroke="#BE49C4" stroke-linecap="square" stroke-width="3" d="M 60 122 L 60 122 M 60 122 C 106 122 98 168 136 168 L 283 168" p="7206cdd8623f"/><path id="line_3a6c831af45d" fill="none" stroke="#BE49C4" stroke-linecap="square" stroke-width="3" d="M 60 122 L 60 122 M 60 122 C 106 122 98 214 136 214 L 290 214" p="7206cdd8623f"/></g></g><g id="sdjakdjak1" transform="translate(302, 747.0000305175781)"><g id="subline_8ef26246e8c1" transform="translate(0.5,-0.5)"><path id="line_5bb37465054a" fill="none" stroke="#FD5155" stroke-linecap="square" stroke-width="3" d="M 92 55 L 92 55 M 92 55 C 138 55 130 30 168 30 L 228 30" p="8ef26246e8c1"/><path id="line_6dd63b024e8c" fill="none" stroke="#FD5155" stroke-linecap="square" stroke-width="3" d="M 92 55 L 92 55 M 92 55 C 138 55 130 76 168 76 L 246 76" p="8ef26246e8c1"/></g></g><g id="sdjakdjak2" transform="translate(302, 503.0000228881836)"><g id="subline_2f1828c3c51b" transform="translate(0.5,-0.5)"><path id="line_4bb56e0f6370" fill="none" stroke="#FCB52A" stroke-linecap="square" stroke-width="3" d="M 82 123 L 82 123 M 82 123 C 128.28753662109375 123 120.14376831054688 30 158.28753662109375 30 L 228.28753662109375 30" p="2f1828c3c51b"/><path id="line_8dfdd261754e" fill="none" stroke="#FCB52A" stroke-linecap="square" stroke-width="3" d="M 82 123 L 82 123 M 82 123 C 128.28753662109375 123 120.14376831054688 76 158.28753662109375 76 L 302.28753662109375 76" p="2f1828c3c51b"/><path id="line_0bb338389f9f" fill="none" stroke="#FCB52A" stroke-linecap="square" stroke-width="3" d="M 82 123 L 82 123 M 82 123 C 128.28753662109375 123 120.14376831054688 122 158.28753662109375 122 L 344.28753662109375 122" p="2f1828c3c51b"/><path id="line_a4de0b1014dd" fill="none" stroke="#FCB52A" stroke-linecap="square" stroke-width="3" d="M 82 123 L 82 123 M 82 123 C 128.28753662109375 123 120.14376831054688 168 158.28753662109375 168 L 239.28753662109375 168" p="2f1828c3c51b"/><path id="line_bb89ec3cb0cc" fill="none" stroke="#FCB52A" stroke-linecap="square" stroke-width="3" d="M 82 123 L 82 123 M 82 123 C 128.28753662109375 123 120.14376831054688 214 158.28753662109375 214 L 272.28753662109375 214" p="2f1828c3c51b"/></g></g><g id="sdjakdjak3" transform="translate(302, 396.00001525878906)"><g id="subline_493e39e43892" transform="translate(0.5,-0.5)"><path id="line_3ceecec383e8" fill="none" stroke="#0F80C4" stroke-linecap="square" stroke-width="3" d="M 118 54 L 118 54 M 118 54 C 163.75 54 155.875 30 193.75 30 L 254.75 30" p="493e39e43892"/><path id="line_7f3172c5a60a" fill="none" stroke="#0F80C4" stroke-linecap="square" stroke-width="3" d="M 118 54 L 118 54 M 118 54 C 163.75 54 155.875 76 193.75 76 L 239.75 76" p="493e39e43892"/></g></g><g id="sdjakdjak4" transform="translate(302, 289.0000305175781)"><g id="subline_1b6837c9b2d6" transform="translate(0.5,-0.5)"><path id="line_a569631a3fcf" fill="none" stroke="#0FBAB0" stroke-linecap="square" stroke-width="3" d="M 92 55 L 92 55 M 92 55 C 138 55 130 30 168 30 L 233 30" p="1b6837c9b2d6"/><path id="line_12832e1a0014" fill="none" stroke="#0FBAB0" stroke-linecap="square" stroke-width="3" d="M 92 55 L 92 55 M 92 55 C 138 55 130 76 168 76 L 235 76" p="1b6837c9b2d6"/></g></g><g id="sdjakdjak5" transform="translate(302, 183.00003051757812)"><g id="subline_20cbf7cd9806" transform="translate(0.5,-0.5)"><path id="line_a624070c2c7e" fill="none" stroke="#0D7C82" stroke-linecap="square" stroke-width="3" d="M 89 55 L 89 55 M 89 55 C 134.61248779296875 55 126.80624389648438 30 164.61248779296875 30 L 262.61248779296875 30" p="20cbf7cd9806"/><path id="line_42f5f78d4022" fill="none" stroke="#0D7C82" stroke-linecap="square" stroke-width="3" d="M 89 55 L 89 55 M 89 55 C 134.61248779296875 55 126.80624389648438 76 164.61248779296875 76 L 265.61248779296875 76" p="20cbf7cd9806"/></g></g><g id="sdjakdjak6" transform="translate(302, 30)"><g id="subline_262a9a176bb6" transform="translate(0.5,-0.5)"><path id="line_eb641bc596ea" fill="none" stroke="#02ACF4" stroke-linecap="square" stroke-width="3" d="M 82 76 L 82 76 M 82 76 C 128.5875244140625 76 120.29376220703125 30 158.5875244140625 30 L 228.5875244140625 30" p="262a9a176bb6"/><path id="line_84dbb8c00b14" fill="none" stroke="#02ACF4" stroke-linecap="square" stroke-width="3" d="M 82 76 L 82 76 M 82 76 C 128.5875244140625 76 120.29376220703125 76 158.5875244140625 76 L 260.5875244140625 76" p="262a9a176bb6"/><path id="line_83766f795db1" fill="none" stroke="#02ACF4" stroke-linecap="square" stroke-width="3" d="M 82 76 L 82 76 M 82 76 C 128.5875244140625 76 120.29376220703125 122 158.5875244140625 122 L 263.5875244140625 122" p="262a9a176bb6"/></g></g><g id="root"><rect style="fill:#fff;stroke:none" width="172" height="68" x="30" y="527" rx="7" ry="7"/><g><text fill="#2A2E36" align="top" anchor="start" font-family="微软雅黑" font-size="24" font-weight="normal" text-anchor="start"><tspan x="68" y="568.725"><tspan>扩展学习</tspan></tspan></text></g></g></svg>