<?xml-stylesheet type="text/css" href="https://www.processon.com/themes/default/mind/icons/icons.css" ?><svg xmlns="http://www.w3.org/2000/svg" style="position:absolute;left:0;top:0;width:711px;height:582px;background:#f7f7f7;z-index:999" id="mind-svg-con" width="711" height="582" version="1.1" xlink="http://www.w3.org/1999/xlink"><g id="svgbackgroundid"><rect width="711" height="582" x="0" y="0" fill="#F7F7F7"/></g><g id="sdjakdjak10"><g class="svg-topic-con" transform="translate(-9860, -9632.000381469727) translate(0.5,0.5)"><path id="line_cff395f44a8f" fill="none" stroke="#0FBAB0" stroke-width="3" d="M 10000 9935.50039100647 L 10105 9935.50039100647 C 10145 9935.50039100647 10145 9692.5 10210 9692.5 L 10440 9692.5" part="right" sub="true"/><path id="line_81e2803648a4" fill="none" stroke="#0FBAB0" stroke-width="3" d="M 10000 9935.50039100647 L 10105 9935.50039100647 C 10145 9935.50039100647 10145 9753.5 10210 9753.5 L 10458 9753.5" part="right" sub="true"/><path id="line_b03491fc65e4" fill="none" stroke="#7549C5" stroke-width="3" d="M 10000 9935.50039100647 L 10105 9935.50039100647 C 10145 9935.50039100647 10145 9814.5 10210 9814.5 L 10376 9814.5" part="right" sub="true"/><path id="line_75f4d17c8cae" fill="none" stroke="#3D5EC2" stroke-width="3" d="M 10000 9935.50039100647 L 10105 9935.50039100647 C 10145 9935.50039100647 10145 9876.5 10210 9876.5 L 10541 9876.5" part="right" sub="true"/><path id="line_256ee13ec8e3" fill="none" stroke="#02ACF4" stroke-width="3" d="M 10000 9935.50039100647 L 10105 9935.50039100647 C 10145 9935.50039100647 10145 9937.5 10210 9937.5 L 10455 9937.5" part="right" sub="true"/><path id="line_06c94b58f011" fill="none" stroke="#0F80C4" stroke-width="3" d="M 10000 9935.50039100647 L 10105 9935.50039100647 C 10145 9935.50039100647 10145 9998.5 10210 9998.5 L 10463 9998.5" part="right" sub="true"/><path id="line_e69ff39f916c" fill="none" stroke="#80BA4C" stroke-width="3" d="M 10000 9935.50039100647 L 10105 9935.50039100647 C 10145 9935.50039100647 10145 10060.5 10210 10060.5 L 10444 10060.5" part="right" sub="true"/><path id="line_beceae161cbf" fill="none" stroke="#FCB52A" stroke-width="3" d="M 10000 9935.50039100647 L 10105 9935.50039100647 C 10145 9935.50039100647 10145 10121.5 10210 10121.5 L 10444 10121.5" part="right" sub="true"/><path id="line_21fb4c908b5e" fill="none" stroke="#BE49C4" stroke-width="3" d="M 10000 9935.50039100647 L 10105 9935.50039100647 C 10145 9935.50039100647 10145 10182.5 10210 10182.5 L 10397 10182.5" part="right" sub="true"/></g></g><g id="21fb4c908b5e"><rect style="fill:transparent;stroke:none" width="187" height="30" x="350" y="520" rx="1" ry="1"/><g><text fill="#0D0B22" align="top" anchor="start" font-family="微软雅黑" font-size="16" font-weight="normal" text-anchor="start"><tspan x="364" y="540.875"><tspan>整合OSS实现文件上传</tspan></tspan></text></g></g><g id="beceae161cbf"><rect style="fill:transparent;stroke:none" width="234" height="30" x="350" y="459" rx="1" ry="1"/><g><text fill="#0D0B22" align="top" anchor="start" font-family="微软雅黑" font-size="16" font-weight="normal" text-anchor="start"><tspan x="364" y="479.875"><tspan>整合RabbitMQ实现延迟消息</tspan></tspan></text></g></g><g id="e69ff39f916c"><rect style="fill:transparent;stroke:none" width="234" height="30" x="350" y="398" rx="1" ry="1"/><g><text fill="#0D0B22" align="top" anchor="start" font-family="微软雅黑" font-size="16" font-weight="normal" text-anchor="start"><tspan x="364" y="418.875"><tspan>整合MongoDB实现文档操作</tspan></tspan></text></g></g><g id="06c94b58f011"><rect style="fill:transparent;stroke:none" width="253" height="30" x="350" y="336" rx="1" ry="1"/><g><text fill="#0D0B22" align="top" anchor="start" font-family="微软雅黑" font-size="16" font-weight="normal" text-anchor="start"><tspan x="364" y="356.875"><tspan>整合Elasticsearch实现商品搜索</tspan></tspan></text></g></g><g id="256ee13ec8e3"><rect style="fill:transparent;stroke:none" width="245" height="30" x="350" y="275" rx="1" ry="1"/><g><text fill="#0D0B22" align="top" anchor="start" font-family="微软雅黑" font-size="16" font-weight="normal" text-anchor="start"><tspan x="364" y="295.875"><tspan>整合Spring Task实现定时任务</tspan></tspan></text></g></g><g id="75f4d17c8cae"><rect style="fill:transparent;stroke:none" width="331" height="30" x="350" y="214" rx="1" ry="1"/><g><text fill="#0D0B22" align="top" anchor="start" font-family="微软雅黑" font-size="16" font-weight="normal" text-anchor="start"><tspan x="364" y="234.875"><tspan>整合Spring Security+JWT实现认证和授权</tspan></tspan></text></g></g><g id="b03491fc65e4"><rect style="fill:transparent;stroke:none" width="166" height="30" x="350" y="152" rx="1" ry="1"/><g><text fill="#0D0B22" align="top" anchor="start" font-family="微软雅黑" font-size="16" font-weight="normal" text-anchor="start"><tspan x="364" y="172.875"><tspan>整合Redis实现缓存</tspan></tspan></text></g></g><g id="81e2803648a4"><rect style="fill:transparent;stroke:none" width="248" height="30" x="350" y="91" rx="1" ry="1"/><g><text fill="#0D0B22" align="top" anchor="start" font-family="微软雅黑" font-size="16" font-weight="normal" text-anchor="start"><tspan x="364" y="111.875"><tspan>整合Swagger实现API接口文档</tspan></tspan></text></g></g><g id="cff395f44a8f"><rect style="fill:transparent;stroke:none" width="230" height="30" x="350" y="30" rx="1" ry="1"/><g><text fill="#0D0B22" align="top" anchor="start" font-family="微软雅黑" font-size="16" font-weight="normal" text-anchor="start"><tspan x="364" y="50.875"><tspan>整合MyBatis实现CRUD操作</tspan></tspan></text></g></g><g id="root"><rect style="fill:#fff;stroke:none" width="220" height="68" x="30" y="270" rx="7" ry="7"/><g><text fill="#2A2E36" align="top" anchor="start" font-family="微软雅黑" font-size="24" font-weight="normal" text-anchor="start"><tspan x="68" y="311.725"><tspan>搭建项目骨架</tspan></tspan></text></g></g></svg>