<?xml-stylesheet type="text/css" href="https://www.processon.com/themes/default/mind/icons/icons.css" ?><svg xmlns="http://www.w3.org/2000/svg" style="position:absolute;left:0;top:0;width:724px;height:1083.55px;background:#f7f7f7;z-index:999" id="mind-svg-con" width="724" height="1083.55" version="1.1" xlink="http://www.w3.org/1999/xlink"><g id="svgbackgroundid"><rect width="724" height="1083.55" x="0" y="0" fill="#F7F7F7"/></g><g id="sdjakdjak4"><g class="svg-topic-con" transform="translate(-9872, -9380.000396728516) translate(0.5,0.5)"><path id="line_f034a3a8c2f3" fill="none" stroke="#FCB52A" stroke-width="3" d="M 10000 9935.500396728516 L 10093 9935.500396728516 C 10133 9935.500396728516 10133 9738.5 10198 9738.5 L 10374 9738.5" part="right" sub="true"/><path id="line_00d854c1821d" fill="none" stroke="#0D7C82" stroke-width="3" d="M 10000 9935.500396728516 L 10093 9935.500396728516 C 10133 9935.500396728516 10133 10142 10198 10142 L 10290 10142" part="right" sub="true"/><path id="line_373d5eef6cc6" fill="none" stroke="#F88A35" stroke-width="3" d="M 10000 9935.500396728516 L 10093 9935.500396728516 C 10133 9935.500396728516 10133 10340.5 10198 10340.5 L 10290 10340.5" part="right" sub="true"/></g></g><g id="373d5eef6cc6"><rect style="fill:transparent;stroke:none" width="92" height="30" x="326" y="930.388" rx="1" ry="1"/><g><text fill="#0D0B22" align="top" anchor="start" font-family="微软雅黑" font-size="16" font-weight="normal" text-anchor="start"><tspan x="340" y="951.263"><tspan>技术要点</tspan></tspan></text></g></g><g id="c51145713e73"><rect style="fill:transparent;stroke:none" width="135" height="29" x="494" y="839" rx="1" ry="1"/><g><text fill="#0D0B22" align="top" anchor="start" font-family="微软雅黑" font-size="13" font-weight="400" text-anchor="start"><tspan x="503" y="859.088"><tspan>微服务网关跨域问题</tspan></tspan></text></g></g><g id="f170e392766b"><rect style="fill:transparent;stroke:none" width="109" height="29" x="494" y="884.888" rx="1" ry="1"/><g><text fill="#0D0B22" align="top" anchor="start" font-family="微软雅黑" font-size="13" font-weight="400" text-anchor="start"><tspan x="503" y="904.975"><tspan>微服务应用监控</tspan></tspan></text></g></g><g id="4252bbe4125a"><rect style="fill:transparent;stroke:none" width="109" height="29" x="494" y="930.775" rx="1" ry="1"/><g><text fill="#0D0B22" align="top" anchor="start" font-family="微软雅黑" font-size="13" font-weight="400" text-anchor="start"><tspan x="503" y="950.863"><tspan>微服务性能监控</tspan></tspan></text></g></g><g id="30b53addfb0f"><rect style="fill:transparent;stroke:none" width="135" height="29" x="494" y="976.663" rx="1" ry="1"/><g><text fill="#0D0B22" align="top" anchor="start" font-family="微软雅黑" font-size="13" font-weight="400" text-anchor="start"><tspan x="503" y="996.75"><tspan>微服务权限解决方案</tspan></tspan></text></g></g><g id="6a20ed570bcc"><rect style="fill:transparent;stroke:none" width="109" height="29" x="494" y="1022.55" rx="1" ry="1"/><g><text fill="#0D0B22" align="top" anchor="start" font-family="微软雅黑" font-size="13" font-weight="400" text-anchor="start"><tspan x="503" y="1042.637"><tspan>微服务聚合文档</tspan></tspan></text></g></g><g id="00d854c1821d"><rect style="fill:transparent;stroke:none" width="92" height="29" x="326" y="732.5" rx="1" ry="1"/><g><text fill="#0D0B22" align="top" anchor="start" font-family="微软雅黑" font-size="16" font-weight="normal" text-anchor="start"><tspan x="340" y="753.375"><tspan>项目部署</tspan></tspan></text></g></g><g id="79382b774987"><rect style="fill:transparent;stroke:none" width="127" height="29" x="494" y="687" rx="1" ry="1"/><g><text fill="#0D0B22" align="top" anchor="start" font-family="微软雅黑" font-size="13" font-weight="400" text-anchor="start"><tspan x="503" y="707.088"><tspan>Windows下的部署</tspan></tspan></text></g></g><g id="a2786658bf4f"><rect style="fill:transparent;stroke:none" width="160" height="29" x="494" y="732.888" rx="1" ry="1"/><g><text fill="#0D0B22" align="top" anchor="start" font-family="微软雅黑" font-size="13" font-weight="400" text-anchor="start"><tspan x="503" y="752.975"><tspan>Linux下使用Docker部署</tspan></tspan></text></g></g><g id="2fb30ef3fb74"><rect style="fill:transparent;stroke:none" width="200" height="29" x="494" y="778.775" rx="1" ry="1"/><g><text fill="#0D0B22" align="top" anchor="start" font-family="微软雅黑" font-size="13" font-weight="400" text-anchor="start"><tspan x="503" y="798.862"><tspan>Linux下使用Jenkins自动化部署</tspan></tspan></text></g></g><g id="f034a3a8c2f3"><rect style="fill:transparent;stroke:none" width="176" height="30" x="326" y="327.875" rx="1" ry="1"/><g><text fill="#0D0B22" align="top" anchor="start" font-family="微软雅黑" font-size="16" font-weight="normal" text-anchor="start"><tspan x="340" y="348.75"><tspan>Spring Cloud技术栈</tspan></tspan></text></g></g><g id="019ffac9f7eb"><rect style="fill:transparent;stroke:none" width="60" height="29" x="577.875" y="30" rx="1" ry="1"/><g><text fill="#0D0B22" align="top" anchor="start" font-family="微软雅黑" font-size="13" font-weight="400" text-anchor="start"><tspan x="586.875" y="50.087"><tspan>Eureka</tspan></tspan></text></g></g><g id="da83e44cbdc8"><rect style="fill:transparent;stroke:none" width="63" height="29" x="577.875" y="75.887" rx="1" ry="1"/><g><text fill="#0D0B22" align="top" anchor="start" font-family="微软雅黑" font-size="13" font-weight="400" text-anchor="start"><tspan x="586.875" y="95.975"><tspan>Ribbon</tspan></tspan></text></g></g><g id="70686332d808"><rect style="fill:transparent;stroke:none" width="61" height="29" x="577.875" y="121.775" rx="1" ry="1"/><g><text fill="#0D0B22" align="top" anchor="start" font-family="微软雅黑" font-size="13" font-weight="400" text-anchor="start"><tspan x="586.875" y="141.863"><tspan>Hystrix</tspan></tspan></text></g></g><g id="7d49962934b3"><rect style="fill:transparent;stroke:none" width="86" height="29" x="577.875" y="167.662" rx="1" ry="1"/><g><text fill="#0D0B22" align="top" anchor="start" font-family="微软雅黑" font-size="13" font-weight="400" text-anchor="start"><tspan x="586.875" y="187.75"><tspan>OpenFeign</tspan></tspan></text></g></g><g id="ff8760599a11"><rect style="fill:transparent;stroke:none" width="46" height="29" x="577.875" y="213.55" rx="1" ry="1"/><g><text fill="#0D0B22" align="top" anchor="start" font-family="微软雅黑" font-size="13" font-weight="400" text-anchor="start"><tspan x="586.875" y="233.637"><tspan>Zuul</tspan></tspan></text></g></g><g id="3cc6ca4e4c07"><rect style="fill:transparent;stroke:none" width="59" height="29" x="577.875" y="259.437" rx="1" ry="1"/><g><text fill="#0D0B22" align="top" anchor="start" font-family="微软雅黑" font-size="13" font-weight="400" text-anchor="start"><tspan x="586.875" y="279.525"><tspan>Config</tspan></tspan></text></g></g><g id="fcc75d20a603"><rect style="fill:transparent;stroke:none" width="40" height="29" x="577.875" y="305.325" rx="1" ry="1"/><g><text fill="#0D0B22" align="top" anchor="start" font-family="微软雅黑" font-size="13" font-weight="400" text-anchor="start"><tspan x="586.875" y="325.412"><tspan>Bus</tspan></tspan></text></g></g><g id="d5d96ed39941"><rect style="fill:transparent;stroke:none" width="58" height="29" x="577.875" y="351.212" rx="1" ry="1"/><g><text fill="#0D0B22" align="top" anchor="start" font-family="微软雅黑" font-size="13" font-weight="400" text-anchor="start"><tspan x="586.875" y="371.3"><tspan>Sleuth</tspan></tspan></text></g></g><g id="6af33f95ec33"><rect style="fill:transparent;stroke:none" width="61" height="29" x="577.875" y="397.1" rx="1" ry="1"/><g><text fill="#0D0B22" align="top" anchor="start" font-family="微软雅黑" font-size="13" font-weight="400" text-anchor="start"><tspan x="586.875" y="417.187"><tspan>Consul</tspan></tspan></text></g></g><g id="83157b845835"><rect style="fill:transparent;stroke:none" width="71" height="29" x="577.875" y="442.987" rx="1" ry="1"/><g><text fill="#0D0B22" align="top" anchor="start" font-family="微软雅黑" font-size="13" font-weight="400" text-anchor="start"><tspan x="586.875" y="463.075"><tspan>Gateway</tspan></tspan></text></g></g><g id="73bfdcca505f"><rect style="fill:transparent;stroke:none" width="64" height="29" x="577.875" y="488.875" rx="1" ry="1"/><g><text fill="#0D0B22" align="top" anchor="start" font-family="微软雅黑" font-size="13" font-weight="400" text-anchor="start"><tspan x="586.875" y="508.962"><tspan>Oauth2</tspan></tspan></text></g></g><g id="7299c205126e"><rect style="fill:transparent;stroke:none" width="57" height="29" x="577.875" y="534.762" rx="1" ry="1"/><g><text fill="#0D0B22" align="top" anchor="start" font-family="微软雅黑" font-size="13" font-weight="400" text-anchor="start"><tspan x="586.875" y="554.85"><tspan>Nacos</tspan></tspan></text></g></g><g id="c4809abc31a9"><rect style="fill:transparent;stroke:none" width="68" height="29" x="577.875" y="580.65" rx="1" ry="1"/><g><text fill="#0D0B22" align="top" anchor="start" font-family="微软雅黑" font-size="13" font-weight="400" text-anchor="start"><tspan x="586.875" y="600.737"><tspan>Sentinel</tspan></tspan></text></g></g><g id="f9f399c5fac7"><rect style="fill:transparent;stroke:none" width="52" height="29" x="577.875" y="626.537" rx="1" ry="1"/><g><text fill="#0D0B22" align="top" anchor="start" font-family="微软雅黑" font-size="13" font-weight="400" text-anchor="start"><tspan x="586.875" y="646.625"><tspan>Seata</tspan></tspan></text></g></g><g id="sdjakdjak0" transform="translate(326, 839)"><g id="subline_373d5eef6cc6" transform="translate(0.5,-0.5)"><path id="line_c51145713e73" fill="none" stroke="#F88A35" stroke-linecap="square" stroke-width="3" d="M 92 123 L 92 123 M 92 123 C 138 123 130 30 168 30 L 303 30" p="373d5eef6cc6"/><path id="line_f170e392766b" fill="none" stroke="#F88A35" stroke-linecap="square" stroke-width="3" d="M 92 123 L 92 123 M 92 123 C 138 123 130 76 168 76 L 277 76" p="373d5eef6cc6"/><path id="line_4252bbe4125a" fill="none" stroke="#F88A35" stroke-linecap="square" stroke-width="3" d="M 92 123 L 92 123 M 92 123 C 138 123 130 122 168 122 L 277 122" p="373d5eef6cc6"/><path id="line_30b53addfb0f" fill="none" stroke="#F88A35" stroke-linecap="square" stroke-width="3" d="M 92 123 L 92 123 M 92 123 C 138 123 130 168 168 168 L 303 168" p="373d5eef6cc6"/><path id="line_6a20ed570bcc" fill="none" stroke="#F88A35" stroke-linecap="square" stroke-width="3" d="M 92 123 L 92 123 M 92 123 C 138 123 130 214 168 214 L 277 214" p="373d5eef6cc6"/></g></g><g id="sdjakdjak1" transform="translate(326, 687)"><g id="subline_00d854c1821d" transform="translate(0.5,-0.5)"><path id="line_79382b774987" fill="none" stroke="#0D7C82" stroke-linecap="square" stroke-width="3" d="M 92 76 L 92 76 M 92 76 C 138 76 130 30 168 30 L 295 30" p="00d854c1821d"/><path id="line_a2786658bf4f" fill="none" stroke="#0D7C82" stroke-linecap="square" stroke-width="3" d="M 92 76 L 92 76 M 92 76 C 138 76 130 76 168 76 L 328 76" p="00d854c1821d"/><path id="line_2fb30ef3fb74" fill="none" stroke="#0D7C82" stroke-linecap="square" stroke-width="3" d="M 92 76 L 92 76 M 92 76 C 138 76 130 122 168 122 L 368 122" p="00d854c1821d"/></g></g><g id="sdjakdjak2" transform="translate(326, 30)"><g id="subline_f034a3a8c2f3" transform="translate(0.5,-0.5)"><path id="line_019ffac9f7eb" fill="none" stroke="#FCB52A" stroke-linecap="square" stroke-width="3" d="M 176 330 L 176 330 M 176 330 C 221.875 330 213.9375 30 251.875 30 L 311.875 30" p="f034a3a8c2f3"/><path id="line_da83e44cbdc8" fill="none" stroke="#FCB52A" stroke-linecap="square" stroke-width="3" d="M 176 330 L 176 330 M 176 330 C 221.875 330 213.9375 76 251.875 76 L 314.875 76" p="f034a3a8c2f3"/><path id="line_70686332d808" fill="none" stroke="#FCB52A" stroke-linecap="square" stroke-width="3" d="M 176 330 L 176 330 M 176 330 C 221.875 330 213.9375 122 251.875 122 L 312.875 122" p="f034a3a8c2f3"/><path id="line_7d49962934b3" fill="none" stroke="#FCB52A" stroke-linecap="square" stroke-width="3" d="M 176 330 L 176 330 M 176 330 C 221.875 330 213.9375 168 251.875 168 L 337.875 168" p="f034a3a8c2f3"/><path id="line_ff8760599a11" fill="none" stroke="#FCB52A" stroke-linecap="square" stroke-width="3" d="M 176 330 L 176 330 M 176 330 C 221.875 330 213.9375 214 251.875 214 L 297.875 214" p="f034a3a8c2f3"/><path id="line_3cc6ca4e4c07" fill="none" stroke="#FCB52A" stroke-linecap="square" stroke-width="3" d="M 176 330 L 176 330 M 176 330 C 221.875 330 213.9375 259 251.875 259 L 310.875 259" p="f034a3a8c2f3"/><path id="line_fcc75d20a603" fill="none" stroke="#FCB52A" stroke-linecap="square" stroke-width="3" d="M 176 330 L 176 330 M 176 330 C 221.875 330 213.9375 305 251.875 305 L 291.875 305" p="f034a3a8c2f3"/><path id="line_d5d96ed39941" fill="none" stroke="#FCB52A" stroke-linecap="square" stroke-width="3" d="M 176 330 L 176 330 M 176 330 C 221.875 330 213.9375 351 251.875 351 L 309.875 351" p="f034a3a8c2f3"/><path id="line_6af33f95ec33" fill="none" stroke="#FCB52A" stroke-linecap="square" stroke-width="3" d="M 176 330 L 176 330 M 176 330 C 221.875 330 213.9375 397 251.875 397 L 312.875 397" p="f034a3a8c2f3"/><path id="line_83157b845835" fill="none" stroke="#FCB52A" stroke-linecap="square" stroke-width="3" d="M 176 330 L 176 330 M 176 330 C 221.875 330 213.9375 443 251.875 443 L 322.875 443" p="f034a3a8c2f3"/><path id="line_73bfdcca505f" fill="none" stroke="#FCB52A" stroke-linecap="square" stroke-width="3" d="M 176 330 L 176 330 M 176 330 C 221.875 330 213.9375 489 251.875 489 L 315.875 489" p="f034a3a8c2f3"/><path id="line_7299c205126e" fill="none" stroke="#FCB52A" stroke-linecap="square" stroke-width="3" d="M 176 330 L 176 330 M 176 330 C 221.875 330 213.9375 535 251.875 535 L 308.875 535" p="f034a3a8c2f3"/><path id="line_c4809abc31a9" fill="none" stroke="#FCB52A" stroke-linecap="square" stroke-width="3" d="M 176 330 L 176 330 M 176 330 C 221.875 330 213.9375 581 251.875 581 L 319.875 581" p="f034a3a8c2f3"/><path id="line_f9f399c5fac7" fill="none" stroke="#FCB52A" stroke-linecap="square" stroke-width="3" d="M 176 330 L 176 330 M 176 330 C 221.875 330 213.9375 627 251.875 627 L 303.875 627" p="f034a3a8c2f3"/></g></g><g id="root"><rect style="fill:#fff;stroke:none" width="196" height="68" x="30" y="522" rx="7" ry="7"/><g><text fill="#2A2E36" align="top" anchor="start" font-family="微软雅黑" font-size="24" font-weight="normal" text-anchor="start"><tspan x="68" y="563.725"><tspan>进阶微服务</tspan></tspan></text></g></g></svg>