<?xml-stylesheet type="text/css" href="https://www.processon.com/themes/default/mind/icons/icons.css" ?><svg xmlns="http://www.w3.org/2000/svg" style="position:absolute;left:0;top:0;width:647px;height:950px;background:#f7f7f7;z-index:999" id="mind-svg-con" width="647" height="950" version="1.1" xlink="http://www.w3.org/1999/xlink"><g id="svgbackgroundid"><rect width="647" height="950" x="0" y="0" fill="#F7F7F7"/></g><g id="sdjakdjak16"><g class="svg-topic-con" transform="translate(-9884, -9449.000396728516) translate(0.5,0.5)"><path id="line_ec317d087f0a" fill="none" stroke="#0F80C4" stroke-width="3" d="M 10000 9935.50039100647 L 10081 9935.50039100647 C 10121 9935.50039100647 10121 9509.5 10186 9509.5 L 10420 9509.5" part="right" sub="true"/><path id="line_553a59dbcbb6" fill="none" stroke="#F88A35" stroke-width="3" d="M 10000 9935.50039100647 L 10081 9935.50039100647 C 10121 9935.50039100647 10121 9570.5 10186 9570.5 L 10408 9570.5" part="right" sub="true"/><path id="line_20d0bf652618" fill="none" stroke="#BE49C4" stroke-width="3" d="M 10000 9935.50039100647 L 10081 9935.50039100647 C 10121 9935.50039100647 10121 9632.5 10186 9632.5 L 10369 9632.5" part="right" sub="true"/><path id="line_6c8bbc70f25a" fill="none" stroke="#7549C5" stroke-width="3" d="M 10000 9935.50039100647 L 10081 9935.50039100647 C 10121 9935.50039100647 10121 9693.5 10186 9693.5 L 10358 9693.5" part="right" sub="true"/><path id="line_00b664e3f3fe" fill="none" stroke="#FA5465" stroke-width="3" d="M 10000 9935.50039100647 L 10081 9935.50039100647 C 10121 9935.50039100647 10121 9754.5 10186 9754.5 L 10347 9754.5" part="right" sub="true"/><path id="line_5fe394f14550" fill="none" stroke="#FCB52A" stroke-width="3" d="M 10000 9935.50039100647 L 10081 9935.50039100647 C 10121 9935.50039100647 10121 9816.5 10186 9816.5 L 10501 9816.5" part="right" sub="true"/><path id="line_819d9558c4f1" fill="none" stroke="#DD489D" stroke-width="3" d="M 10000 9935.50039100647 L 10081 9935.50039100647 C 10121 9935.50039100647 10121 9877.5 10186 9877.5 L 10389 9877.5" part="right" sub="true"/><path id="line_5e13a48aca49" fill="none" stroke="#80BA4C" stroke-width="3" d="M 10000 9935.50039100647 L 10081 9935.50039100647 C 10121 9935.50039100647 10121 9938.5 10186 9938.5 L 10342 9938.5" part="right" sub="true"/><path id="line_a857197f7916" fill="none" stroke="#FD5155" stroke-width="3" d="M 10000 9935.50039100647 L 10081 9935.50039100647 C 10121 9935.50039100647 10121 10000.5 10186 10000.5 L 10342 10000.5" part="right" sub="true"/><path id="line_bf0876f39577" fill="none" stroke="#0FBAB0" stroke-width="3" d="M 10000 9935.50039100647 L 10081 9935.50039100647 C 10121 9935.50039100647 10121 10061.5 10186 10061.5 L 10401 10061.5" part="right" sub="true"/><path id="line_6f4ac59e044f" fill="none" stroke="#3D5EC2" stroke-width="3" d="M 10000 9935.50039100647 L 10081 9935.50039100647 C 10121 9935.50039100647 10121 10122.5 10186 10122.5 L 10397 10122.5" part="right" sub="true"/><path id="line_a210d91cbb75" fill="none" stroke="#0D7C82" stroke-width="3" d="M 10000 9935.50039100647 L 10081 9935.50039100647 C 10121 9935.50039100647 10121 10184.5 10186 10184.5 L 10390 10184.5" part="right" sub="true"/><path id="line_fd99c80d0985" fill="none" stroke="#FA5465" stroke-width="3" d="M 10000 9935.50039100647 L 10081 9935.50039100647 C 10121 9935.50039100647 10121 10245.5 10186 10245.5 L 10376 10245.5" part="right" sub="true"/><path id="line_d82225cb127e" fill="none" stroke="#FD5155" stroke-width="3" d="M 10000 9935.50039100647 L 10081 9935.50039100647 C 10121 9935.50039100647 10121 10306.5 10186 10306.5 L 10407 10306.5" part="right" sub="true"/><path id="line_ee786dceda10" fill="none" stroke="#DD489D" stroke-width="3" d="M 10000 9935.50039100647 L 10081 9935.50039100647 C 10121 9935.50039100647 10121 10368.5 10186 10368.5 L 10374 10368.5" part="right" sub="true"/></g></g><g id="ee786dceda10"><rect style="fill:transparent;stroke:none" width="188" height="30" x="302" y="889" rx="1" ry="1"/><g><text fill="#0D0B22" align="top" anchor="start" font-family="微软雅黑" font-size="16" font-weight="normal" text-anchor="start"><tspan x="316" y="909.875"><tspan>权限管理功能相关问题</tspan></tspan></text></g></g><g id="d82225cb127e"><rect style="fill:transparent;stroke:none" width="221" height="30" x="302" y="827" rx="1" ry="1"/><g><text fill="#0D0B22" align="top" anchor="start" font-family="微软雅黑" font-size="16" font-weight="normal" text-anchor="start"><tspan x="316" y="847.875"><tspan>Elasticsearch版本升级问题</tspan></tspan></text></g></g><g id="fd99c80d0985"><rect style="fill:transparent;stroke:none" width="190" height="30" x="302" y="766" rx="1" ry="1"/><g><text fill="#0D0B22" align="top" anchor="start" font-family="微软雅黑" font-size="16" font-weight="normal" text-anchor="start"><tspan x="316" y="786.875"><tspan>Swagger版本升级问题</tspan></tspan></text></g></g><g id="a210d91cbb75"><rect style="fill:transparent;stroke:none" width="204" height="30" x="302" y="705" rx="1" ry="1"/><g><text fill="#0D0B22" align="top" anchor="start" font-family="微软雅黑" font-size="16" font-weight="normal" text-anchor="start"><tspan x="316" y="725.875"><tspan>商品搜索功能设计与实现</tspan></tspan></text></g></g><g id="6f4ac59e044f"><rect style="fill:transparent;stroke:none" width="211" height="30" x="302" y="643" rx="1" ry="1"/><g><text fill="#0D0B22" align="top" anchor="start" font-family="微软雅黑" font-size="16" font-weight="normal" text-anchor="start"><tspan x="316" y="663.875"><tspan>Redis+AOP优化权限管理</tspan></tspan></text></g></g><g id="bf0876f39577"><rect style="fill:transparent;stroke:none" width="215" height="30" x="302" y="582" rx="1" ry="1"/><g><text fill="#0D0B22" align="top" anchor="start" font-family="微软雅黑" font-size="16" font-weight="normal" text-anchor="start"><tspan x="316" y="602.875"><tspan>Spring Boot参数校验处</tspan></tspan><tspan x="316" y="624.875"><tspan>理</tspan></tspan></text></g></g><g id="a857197f7916"><rect style="fill:transparent;stroke:none" width="156" height="30" x="302" y="521" rx="1" ry="1"/><g><text fill="#0D0B22" align="top" anchor="start" font-family="微软雅黑" font-size="16" font-weight="normal" text-anchor="start"><tspan x="316" y="541.875"><tspan>权限管理前端实现</tspan></tspan></text></g></g><g id="5e13a48aca49"><rect style="fill:transparent;stroke:none" width="156" height="30" x="302" y="459" rx="1" ry="1"/><g><text fill="#0D0B22" align="top" anchor="start" font-family="微软雅黑" font-size="16" font-weight="normal" text-anchor="start"><tspan x="316" y="479.875"><tspan>权限管理后端实现</tspan></tspan></text></g></g><g id="819d9558c4f1"><rect style="fill:transparent;stroke:none" width="203" height="30" x="302" y="398" rx="1" ry="1"/><g><text fill="#0D0B22" align="top" anchor="start" font-family="微软雅黑" font-size="16" font-weight="normal" text-anchor="start"><tspan x="316" y="418.875"><tspan>整合MinIO实现文件上传</tspan></tspan></text></g></g><g id="5fe394f14550"><rect style="fill:transparent;stroke:none" width="315" height="30" x="302" y="337" rx="1" ry="1"/><g><text fill="#0D0B22" align="top" anchor="start" font-family="微软雅黑" font-size="16" font-weight="normal" text-anchor="start"><tspan x="316" y="357.875"><tspan>整合Spring Security+JWT实现登录认证</tspan></tspan></text></g></g><g id="00b664e3f3fe"><rect style="fill:transparent;stroke:none" width="161" height="30" x="302" y="275" rx="1" ry="1"/><g><text fill="#0D0B22" align="top" anchor="start" font-family="微软雅黑" font-size="16" font-weight="normal" text-anchor="start"><tspan x="316" y="295.875"><tspan>Stream API的使用</tspan></tspan></text></g></g><g id="6c8bbc70f25a"><rect style="fill:transparent;stroke:none" width="172" height="30" x="302" y="214" rx="1" ry="1"/><g><text fill="#0D0B22" align="top" anchor="start" font-family="微软雅黑" font-size="16" font-weight="normal" text-anchor="start"><tspan x="316" y="234.875"><tspan>前后端分离跨域问题</tspan></tspan></text></g></g><g id="20d0bf652618"><rect style="fill:transparent;stroke:none" width="183" height="30" x="302" y="153" rx="1" ry="1"/><g><text fill="#0D0B22" align="top" anchor="start" font-family="微软雅黑" font-size="16" font-weight="normal" text-anchor="start"><tspan x="316" y="173.875"><tspan>整合ELK实现日志收</tspan></tspan><tspan x="316" y="195.875"><tspan>集</tspan></tspan></text></g></g><g id="553a59dbcbb6"><rect style="fill:transparent;stroke:none" width="222" height="30" x="302" y="91" rx="1" ry="1"/><g><text fill="#0D0B22" align="top" anchor="start" font-family="微软雅黑" font-size="16" font-weight="normal" text-anchor="start"><tspan x="316" y="111.875"><tspan>使用AOP记录接口访问日志</tspan></tspan></text></g></g><g id="ec317d087f0a"><rect style="fill:transparent;stroke:none" width="234" height="30" x="302" y="30" rx="1" ry="1"/><g><text fill="#0D0B22" align="top" anchor="start" font-family="微软雅黑" font-size="16" font-weight="normal" text-anchor="start"><tspan x="316" y="50.875"><tspan>MyBatis Generator使用问题</tspan></tspan></text></g></g><g id="root"><rect style="fill:#fff;stroke:none" width="172" height="68" x="30" y="453" rx="7" ry="7"/><g><text fill="#2A2E36" align="top" anchor="start" font-family="微软雅黑" font-size="24" font-weight="normal" text-anchor="start"><tspan x="68" y="494.725"><tspan>技术要点</tspan></tspan></text></g></g></svg>