<?xml-stylesheet type="text/css" href="https://www.processon.com/themes/default/mind/icons/icons.css" ?><svg xmlns="http://www.w3.org/2000/svg" style="position:absolute;left:0;top:0;width:542px;height:644px;background:#f7f7f7;z-index:999" id="mind-svg-con" width="542" height="644" version="1.1" xlink="http://www.w3.org/1999/xlink"><g id="svgbackgroundid"><rect width="542" height="644" x="0" y="0" fill="#F7F7F7"/></g><g id="sdjakdjak11"><g class="svg-topic-con" transform="translate(-9872, -9602.000381469727) translate(0.5,0.5)"><path id="line_49ad50c6c8e8" fill="none" stroke="#FA5465" stroke-width="3" d="M 10000 9935.50039100647 L 10093 9935.50039100647 C 10133 9935.50039100647 10133 9662.5 10198 9662.5 L 10253 9662.5" part="right" sub="true"/><path id="line_1510622ff6e6" fill="none" stroke="#FCB52A" stroke-width="3" d="M 10000 9935.50039100647 L 10093 9935.50039100647 C 10133 9935.50039100647 10133 9724.5 10198 9724.5 L 10261 9724.5" part="right" sub="true"/><path id="line_dfa443f2d105" fill="none" stroke="#DD489D" stroke-width="3" d="M 10000 9935.50039100647 L 10093 9935.50039100647 C 10133 9935.50039100647 10133 9785.5 10198 9785.5 L 10308 9785.5" part="right" sub="true"/><path id="line_b3ce742f7d6b" fill="none" stroke="#80BA4C" stroke-width="3" d="M 10000 9935.50039100647 L 10093 9935.50039100647 C 10133 9935.50039100647 10133 9846.5 10198 9846.5 L 10309 9846.5" part="right" sub="true"/><path id="line_cc2cfdcbf378" fill="none" stroke="#7549C5" stroke-width="3" d="M 10000 9935.50039100647 L 10093 9935.50039100647 C 10133 9935.50039100647 10133 9908.5 10198 9908.5 L 10384 9908.5" part="right" sub="true"/><path id="line_f1c13a63895e" fill="none" stroke="#FD5155" stroke-width="3" d="M 10000 9935.50039100647 L 10093 9935.50039100647 C 10133 9935.50039100647 10133 9969.5 10198 9969.5 L 10265 9969.5" part="right" sub="true"/><path id="line_65507e971bf9" fill="none" stroke="#0F80C4" stroke-width="3" d="M 10000 9935.50039100647 L 10093 9935.50039100647 C 10133 9935.50039100647 10133 10030.5 10198 10030.5 L 10295 10030.5" part="right" sub="true"/><path id="line_d3256a9aa186" fill="none" stroke="#BE49C4" stroke-width="3" d="M 10000 9935.50039100647 L 10093 9935.50039100647 C 10133 9935.50039100647 10133 10092.5 10198 10092.5 L 10328 10092.5" part="right" sub="true"/><path id="line_967d70abdbe9" fill="none" stroke="#0FBAB0" stroke-width="3" d="M 10000 9935.50039100647 L 10093 9935.50039100647 C 10133 9935.50039100647 10133 10153.5 10198 10153.5 L 10303 10153.5" part="right" sub="true"/><path id="line_f4ba486d4f4e" fill="none" stroke="#0D7C82" stroke-width="3" d="M 10000 9935.50039100647 L 10093 9935.50039100647 C 10133 9935.50039100647 10133 10214.5 10198 10214.5 L 10344 10214.5" part="right" sub="true"/></g></g><g id="f4ba486d4f4e"><rect style="fill:transparent;stroke:none" width="146" height="30" x="326" y="582" rx="1" ry="1"/><g><text fill="#0D0B22" align="top" anchor="start" font-family="微软雅黑" font-size="16" font-weight="normal" text-anchor="start"><tspan x="340" y="602.875"><tspan>path-to-regexp</tspan></tspan></text></g></g><g id="967d70abdbe9"><rect style="fill:transparent;stroke:none" width="105" height="30" x="326" y="521" rx="1" ry="1"/><g><text fill="#0D0B22" align="top" anchor="start" font-family="微软雅黑" font-size="16" font-weight="normal" text-anchor="start"><tspan x="340" y="541.875"><tspan>nprogress</tspan></tspan></text></g></g><g id="d3256a9aa186"><rect style="fill:transparent;stroke:none" width="130" height="30" x="326" y="460" rx="1" ry="1"/><g><text fill="#0D0B22" align="top" anchor="start" font-family="微软雅黑" font-size="16" font-weight="normal" text-anchor="start"><tspan x="340" y="480.875"><tspan>normalize.css</tspan></tspan></text></g></g><g id="65507e971bf9"><rect style="fill:transparent;stroke:none" width="97" height="30" x="326" y="398" rx="1" ry="1"/><g><text fill="#0D0B22" align="top" anchor="start" font-family="微软雅黑" font-size="16" font-weight="normal" text-anchor="start"><tspan x="340" y="418.875"><tspan>js-cookie</tspan></tspan></text></g></g><g id="f1c13a63895e"><rect style="fill:transparent;stroke:none" width="67" height="30" x="326" y="337" rx="1" ry="1"/><g><text fill="#0D0B22" align="top" anchor="start" font-family="微软雅黑" font-size="16" font-weight="normal" text-anchor="start"><tspan x="340" y="357.875"><tspan>axios</tspan></tspan></text></g></g><g id="cc2cfdcbf378"><rect style="fill:transparent;stroke:none" width="186" height="30" x="326" y="276" rx="1" ry="1"/><g><text fill="#0D0B22" align="top" anchor="start" font-family="微软雅黑" font-size="16" font-weight="normal" text-anchor="start"><tspan x="340" y="296.875"><tspan>vue-admin-template</tspan></tspan></text></g></g><g id="b3ce742f7d6b"><rect style="fill:transparent;stroke:none" width="111" height="30" x="326" y="214" rx="1" ry="1"/><g><text fill="#0D0B22" align="top" anchor="start" font-family="微软雅黑" font-size="16" font-weight="normal" text-anchor="start"><tspan x="340" y="234.875"><tspan>element-ui</tspan></tspan></text></g></g><g id="dfa443f2d105"><rect style="fill:transparent;stroke:none" width="110" height="30" x="326" y="153" rx="1" ry="1"/><g><text fill="#0D0B22" align="top" anchor="start" font-family="微软雅黑" font-size="16" font-weight="normal" text-anchor="start"><tspan x="340" y="173.875"><tspan>vue-router</tspan></tspan></text></g></g><g id="1510622ff6e6"><rect style="fill:transparent;stroke:none" width="63" height="30" x="326" y="92" rx="1" ry="1"/><g><text fill="#0D0B22" align="top" anchor="start" font-family="微软雅黑" font-size="16" font-weight="normal" text-anchor="start"><tspan x="340" y="112.875"><tspan>vuex</tspan></tspan></text></g></g><g id="49ad50c6c8e8"><rect style="fill:transparent;stroke:none" width="55" height="30" x="326" y="30" rx="1" ry="1"/><g><text fill="#0D0B22" align="top" anchor="start" font-family="微软雅黑" font-size="16" font-weight="normal" text-anchor="start"><tspan x="340" y="50.875"><tspan>vue</tspan></tspan></text></g></g><g id="root"><rect style="fill:#fff;stroke:none" width="196" height="68" x="30" y="300" rx="7" ry="7"/><g><text fill="#2A2E36" align="top" anchor="start" font-family="微软雅黑" font-size="24" font-weight="normal" text-anchor="start"><tspan x="68" y="341.725"><tspan>前端技术栈</tspan></tspan></text></g></g></svg>