<?xml-stylesheet type="text/css" href="https://www.processon.com/themes/default/mind/icons/icons.css" ?><svg xmlns="http://www.w3.org/2000/svg" style="position:absolute;left:0;top:0;width:642px;height:582px;background:#f7f7f7;z-index:999" id="mind-svg-con" width="642" height="582" version="1.1" xlink="http://www.w3.org/1999/xlink"><g id="svgbackgroundid"><rect width="642" height="582" x="0" y="0" fill="#F7F7F7"/></g><g id="sdjakdjak10"><g class="svg-topic-con" transform="translate(-9884, -9632.000389099121) translate(0.5,0.5)"><path id="line_9af45b929ca8" fill="none" stroke="#FA5465" stroke-width="3" d="M 10000 9935.500396728516 L 10081 9935.500396728516 C 10121 9935.500396728516 10121 9692.5 10186 9692.5 L 10372 9692.5" part="right" sub="true"/><path id="line_61bee6182dd0" fill="none" stroke="#7549C5" stroke-width="3" d="M 10000 9935.500396728516 L 10081 9935.500396728516 C 10121 9935.500396728516 10121 9753.5 10186 9753.5 L 10369 9753.5" part="right" sub="true"/><path id="line_6e3d3def7e69" fill="none" stroke="#0D7C82" stroke-width="3" d="M 10000 9935.500396728516 L 10081 9935.500396728516 C 10121 9935.500396728516 10121 9814.5 10186 9814.5 L 10337 9814.5" part="right" sub="true"/><path id="line_7db172775ab7" fill="none" stroke="#F88A35" stroke-width="3" d="M 10000 9935.500396728516 L 10081 9935.500396728516 C 10121 9935.500396728516 10121 9876.5 10186 9876.5 L 10371 9876.5" part="right" sub="true"/><path id="line_ee9388b4f736" fill="none" stroke="#0FBAB0" stroke-width="3" d="M 10000 9935.500396728516 L 10081 9935.500396728516 C 10121 9935.500396728516 10121 9937.5 10186 9937.5 L 10332 9937.5" part="right" sub="true"/><path id="line_909095e82c50" fill="none" stroke="#02ACF4" stroke-width="3" d="M 10000 9935.500396728516 L 10081 9935.500396728516 C 10121 9935.500396728516 10121 9998.5 10186 9998.5 L 10392 9998.5" part="right" sub="true"/><path id="line_e28f4229e086" fill="none" stroke="#DD489D" stroke-width="3" d="M 10000 9935.500396728516 L 10081 9935.500396728516 C 10121 9935.500396728516 10121 10060.5 10186 10060.5 L 10428 10060.5" part="right" sub="true"/><path id="line_3e95087ab4c9" fill="none" stroke="#0F80C4" stroke-width="3" d="M 10000 9935.500396728516 L 10081 9935.500396728516 C 10121 9935.500396728516 10121 10121.5 10186 10121.5 L 10398 10121.5" part="right" sub="true"/><path id="line_694a613b3458" fill="none" stroke="#FCB52A" stroke-width="3" d="M 10000 9935.500396728516 L 10081 9935.500396728516 C 10121 9935.500396728516 10121 10182.5 10186 10182.5 L 10496 10182.5" part="right" sub="true"/></g></g><g id="694a613b3458"><rect style="fill:transparent;stroke:none" width="310" height="30" x="302" y="520" rx="1" ry="1"/><g><text fill="#0D0B22" align="top" anchor="start" font-family="微软雅黑" font-size="16" font-weight="normal" text-anchor="start"><tspan x="316" y="540.875"><tspan>Spring Cloud与Docker微服务架构实战</tspan></tspan></text></g></g><g id="3e95087ab4c9"><rect style="fill:transparent;stroke:none" width="212" height="30" x="302" y="459" rx="1" ry="1"/><g><text fill="#0D0B22" align="top" anchor="start" font-family="微软雅黑" font-size="16" font-weight="normal" text-anchor="start"><tspan x="316" y="479.875"><tspan>MongoDB实战（第2版）</tspan></tspan></text></g></g><g id="e28f4229e086"><rect style="fill:transparent;stroke:none" width="242" height="30" x="302" y="398" rx="1" ry="1"/><g><text fill="#0D0B22" align="top" anchor="start" font-family="微软雅黑" font-size="16" font-weight="normal" text-anchor="start"><tspan x="316" y="418.875"><tspan>Elasticsearch 技术解析与实战</tspan></tspan></text></g></g><g id="909095e82c50"><rect style="fill:transparent;stroke:none" width="206" height="30" x="302" y="336" rx="1" ry="1"/><g><text fill="#0D0B22" align="top" anchor="start" font-family="微软雅黑" font-size="16" font-weight="normal" text-anchor="start"><tspan x="316" y="356.875"><tspan>循序渐进Linux（第2版）</tspan></tspan></text></g></g><g id="ee9388b4f736"><rect style="fill:transparent;stroke:none" width="146" height="30" x="302" y="275" rx="1" ry="1"/><g><text fill="#0D0B22" align="top" anchor="start" font-family="微软雅黑" font-size="16" font-weight="normal" text-anchor="start"><tspan x="316" y="295.875"><tspan>深入浅出MySQL</tspan></tspan></text></g></g><g id="7db172775ab7"><rect style="fill:transparent;stroke:none" width="185" height="30" x="302" y="214" rx="1" ry="1"/><g><text fill="#0D0B22" align="top" anchor="start" font-family="微软雅黑" font-size="16" font-weight="normal" text-anchor="start"><tspan x="316" y="234.875"><tspan>MyBatis从入门到精通</tspan></tspan></text></g></g><g id="6e3d3def7e69"><rect style="fill:transparent;stroke:none" width="151" height="30" x="302" y="152" rx="1" ry="1"/><g><text fill="#0D0B22" align="top" anchor="start" font-family="微软雅黑" font-size="16" font-weight="normal" text-anchor="start"><tspan x="316" y="172.875"><tspan>Spring Boot实</tspan></tspan><tspan x="316" y="194.875"><tspan>战</tspan></tspan></text></g></g><g id="61bee6182dd0"><rect style="fill:transparent;stroke:none" width="183" height="30" x="302" y="91" rx="1" ry="1"/><g><text fill="#0D0B22" align="top" anchor="start" font-family="微软雅黑" font-size="16" font-weight="normal" text-anchor="start"><tspan x="316" y="111.875"><tspan>Spring实战（第4版）</tspan></tspan></text></g></g><g id="9af45b929ca8"><rect style="fill:transparent;stroke:none" width="186" height="30" x="302" y="30" rx="1" ry="1"/><g><text fill="#0D0B22" align="top" anchor="start" font-family="微软雅黑" font-size="16" font-weight="normal" text-anchor="start"><tspan x="316" y="50.875"><tspan>IntelliJ-IDEA-Tutorial</tspan></tspan></text></g></g><g id="root"><rect style="fill:#fff;stroke:none" width="172" height="68" x="30" y="270" rx="7" ry="7"/><g><text fill="#2A2E36" align="top" anchor="start" font-family="微软雅黑" font-size="24" font-weight="normal" text-anchor="start"><tspan x="68" y="311.725"><tspan>推荐资料</tspan></tspan></text></g></g></svg>