<?xml-stylesheet type="text/css" href="https://www.processon.com/themes/default/mind/icons/icons.css" ?><svg xmlns="http://www.w3.org/2000/svg" style="position:absolute;left:0;top:0;width:456px;height:275px;background:#f7f7f7;z-index:999" id="mind-svg-con" width="456" height="275" version="1.1" xlink="http://www.w3.org/1999/xlink"><g id="svgbackgroundid"><rect width="456" height="275" x="0" y="0" fill="#F7F7F7"/></g><g id="sdjakdjak5"><g class="svg-topic-con" transform="translate(-9884, -9785.000389099121) translate(0.5,0.5)"><path id="line_6e40e100a441" fill="none" stroke="#BE49C4" stroke-width="3" d="M 10000 9935.50039100647 L 10081 9935.50039100647 C 10121 9935.50039100647 10121 9845.5 10186 9845.5 L 10310 9845.5" part="right" sub="true"/><path id="line_bb4d21336d23" fill="none" stroke="#0F80C4" stroke-width="3" d="M 10000 9935.50039100647 L 10081 9935.50039100647 C 10121 9935.50039100647 10121 9906.5 10186 9906.5 L 10278 9906.5" part="right" sub="true"/><path id="line_9074f1fb2c47" fill="none" stroke="#02ACF4" stroke-width="3" d="M 10000 9935.50039100647 L 10081 9935.50039100647 C 10121 9935.50039100647 10121 9968.5 10186 9968.5 L 10278 9968.5" part="right" sub="true"/><path id="line_1c6360ed1d13" fill="none" stroke="#3D5EC2" stroke-width="3" d="M 10000 9935.50039100647 L 10081 9935.50039100647 C 10121 9935.50039100647 10121 10029.5 10186 10029.5 L 10278 10029.5" part="right" sub="true"/></g></g><g id="1c6360ed1d13"><rect style="fill:transparent;stroke:none" width="92" height="30" x="302" y="214" rx="1" ry="1"/><g><text fill="#0D0B22" align="top" anchor="start" font-family="微软雅黑" font-size="16" font-weight="normal" text-anchor="start"><tspan x="316" y="234.875"><tspan>营销模块</tspan></tspan></text></g></g><g id="9074f1fb2c47"><rect style="fill:transparent;stroke:none" width="92" height="30" x="302" y="153" rx="1" ry="1"/><g><text fill="#0D0B22" align="top" anchor="start" font-family="微软雅黑" font-size="16" font-weight="normal" text-anchor="start"><tspan x="316" y="173.875"><tspan>订单模块</tspan></tspan></text></g></g><g id="bb4d21336d23"><rect style="fill:transparent;stroke:none" width="92" height="30" x="302" y="91" rx="1" ry="1"/><g><text fill="#0D0B22" align="top" anchor="start" font-family="微软雅黑" font-size="16" font-weight="normal" text-anchor="start"><tspan x="316" y="111.875"><tspan>商品模块</tspan></tspan></text></g></g><g id="6e40e100a441"><rect style="fill:transparent;stroke:none" width="124" height="30" x="302" y="30" rx="1" ry="1"/><g><text fill="#0D0B22" align="top" anchor="start" font-family="微软雅黑" font-size="16" font-weight="normal" text-anchor="start"><tspan x="316" y="50.875"><tspan>权限管理模块</tspan></tspan></text></g></g><g id="root"><rect style="fill:#fff;stroke:none" width="172" height="68" x="30" y="117" rx="7" ry="7"/><g><text fill="#2A2E36" align="top" anchor="start" font-family="微软雅黑" font-size="24" font-weight="normal" text-anchor="start"><tspan x="68" y="158.725"><tspan>电商业务</tspan></tspan></text></g></g></svg>