<?xml-stylesheet type="text/css" href="https://www.processon.com/themes/default/mind/icons/icons.css" ?><svg xmlns="http://www.w3.org/2000/svg" style="position:absolute;left:0;top:0;width:612px;height:275px;background:#f7f7f7;z-index:999" id="mind-svg-con" width="612" height="275" version="1.1" xlink="http://www.w3.org/1999/xlink"><g id="svgbackgroundid"><rect width="612" height="275" x="0" y="0" fill="#F7F7F7"/></g><g id="sdjakdjak5"><g class="svg-topic-con" transform="translate(-9884, -9785.000389099121) translate(0.5,0.5)"><path id="line_5a402b555269" fill="none" stroke="#0FBAB0" stroke-width="3" d="M 10000 9935.50039100647 L 10081 9935.50039100647 C 10121 9935.50039100647 10121 9845.5 10186 9845.5 L 10349 9845.5" part="right" sub="true"/><path id="line_432eb21b2d54" fill="none" stroke="#FCB52A" stroke-width="3" d="M 10000 9935.50039100647 L 10081 9935.50039100647 C 10121 9935.50039100647 10121 9906.5 10186 9906.5 L 10388 9906.5" part="right" sub="true"/><path id="line_3b037bd3477b" fill="none" stroke="#80BA4C" stroke-width="3" d="M 10000 9935.50039100647 L 10081 9935.50039100647 C 10121 9935.50039100647 10121 9968.5 10186 9968.5 L 10466 9968.5" part="right" sub="true"/><path id="line_2249fc8ac2ee" fill="none" stroke="#7549C5" stroke-width="3" d="M 10000 9935.50039100647 L 10081 9935.50039100647 C 10121 9935.50039100647 10121 10029.5 10186 10029.5 L 10438 10029.5" part="right" sub="true"/></g></g><g id="2249fc8ac2ee"><rect style="fill:transparent;stroke:none" width="252" height="30" x="302" y="214" rx="1" ry="1"/><g><text fill="#0D0B22" align="top" anchor="start" font-family="微软雅黑" font-size="16" font-weight="normal" text-anchor="start"><tspan x="316" y="234.875"><tspan>Linux下使用Jenkins自动化部署</tspan></tspan></text></g></g><g id="3b037bd3477b"><rect style="fill:transparent;stroke:none" width="280" height="30" x="302" y="153" rx="1" ry="1"/><g><text fill="#0D0B22" align="top" anchor="start" font-family="微软雅黑" font-size="16" font-weight="normal" text-anchor="start"><tspan x="316" y="173.875"><tspan>Linux下使用Docker Compose部署</tspan></tspan></text></g></g><g id="432eb21b2d54"><rect style="fill:transparent;stroke:none" width="202" height="30" x="302" y="91" rx="1" ry="1"/><g><text fill="#0D0B22" align="top" anchor="start" font-family="微软雅黑" font-size="16" font-weight="normal" text-anchor="start"><tspan x="316" y="111.875"><tspan>Linux下使用Docker部署</tspan></tspan></text></g></g><g id="5a402b555269"><rect style="fill:transparent;stroke:none" width="163" height="30" x="302" y="30" rx="1" ry="1"/><g><text fill="#0D0B22" align="top" anchor="start" font-family="微软雅黑" font-size="16" font-weight="normal" text-anchor="start"><tspan x="316" y="50.875"><tspan>Windows下的部署</tspan></tspan></text></g></g><g id="root"><rect style="fill:#fff;stroke:none" width="172" height="68" x="30" y="117" rx="7" ry="7"/><g><text fill="#2A2E36" align="top" anchor="start" font-family="微软雅黑" font-size="24" font-weight="normal" text-anchor="start"><tspan x="68" y="158.725"><tspan>项目部署</tspan></tspan></text></g></g></svg>