<?xml-stylesheet type="text/css" href="https://www.processon.com/themes/default/mind/icons/icons.css" ?><svg xmlns="http://www.w3.org/2000/svg" style="position:absolute;left:0;top:0;width:710.625px;height:838px;background:#f7f7f7;z-index:999" id="mind-svg-con" width="710.625" height="838" version="1.1" xlink="http://www.w3.org/1999/xlink"><g id="svgbackgroundid"><rect width="710.625" height="838" x="0" y="0" fill="#F7F7F7"/></g><g id="sdjakdjak9"><g class="svg-topic-con" transform="translate(-9884, -9504.000396728516) translate(0.5,0.5)"><path id="line_8b24864bb852" fill="none" stroke="#FA5465" stroke-width="3" d="M 10000 9935.50039100647 L 10081 9935.50039100647 C 10121 9935.50039100647 10121 9655.5 10186 9655.5 L 10251 9655.5" part="right" sub="true"/><path id="line_679e072ee9a5" fill="none" stroke="#FD5155" stroke-width="3" d="M 10000 9935.50039100647 L 10081 9935.50039100647 C 10121 9935.50039100647 10121 9830.5 10186 9830.5 L 10272 9830.5" part="right" sub="true"/><path id="line_7dd0c24215cd" fill="none" stroke="#80BA4C" stroke-width="3" d="M 10000 9935.50039100647 L 10081 9935.50039100647 C 10121 9935.50039100647 10121 9937.5 10186 9937.5 L 10275 9937.5" part="right" sub="true"/><path id="line_4f083f5485d1" fill="none" stroke="#FCB52A" stroke-width="3" d="M 10000 9935.50039100647 L 10081 9935.50039100647 C 10121 9935.50039100647 10121 10044.5 10186 10044.5 L 10236 10044.5" part="right" sub="true"/><path id="line_f2f5d2ef31ce" fill="none" stroke="#7549C5" stroke-width="3" d="M 10000 9935.50039100647 L 10081 9935.50039100647 C 10121 9935.50039100647 10121 10128.5 10186 10128.5 L 10264 10128.5" part="right" sub="true"/><path id="line_602e740016dd" fill="none" stroke="#F88A35" stroke-width="3" d="M 10000 9935.50039100647 L 10081 9935.50039100647 C 10121 9935.50039100647 10121 10185.5 10186 10185.5 L 10391 10185.5" part="right" sub="true"/><path id="line_4ea6ae3545c5" fill="none" stroke="#0F80C4" stroke-width="3" d="M 10000 9935.50039100647 L 10081 9935.50039100647 C 10121 9935.50039100647 10121 10249.5 10186 10249.5 L 10362 10249.5" part="right" sub="true"/><path id="line_e78dcce8bd71" fill="none" stroke="#BE49C4" stroke-width="3" d="M 10000 9935.50039100647 L 10081 9935.50039100647 C 10121 9935.50039100647 10121 10310.5 10186 10310.5 L 10282 10310.5" part="right" sub="true"/></g></g><g id="e78dcce8bd71"><rect style="fill:transparent;stroke:none" width="96" height="30" x="302" y="776" rx="1" ry="1"/><g><text fill="#0D0B22" align="top" anchor="start" font-family="微软雅黑" font-size="16" font-weight="normal" text-anchor="start"><tspan x="316" y="796.875"><tspan>DataGrip</tspan></tspan></text></g></g><g id="c38fdfaef4e9"><rect style="fill:transparent;stroke:none" width="152" height="29" x="474.325" y="776.388" rx="1" ry="1"/><g><text fill="#0D0B22" align="top" anchor="start" font-family="微软雅黑" font-size="13" font-weight="400" text-anchor="start"><tspan x="483.325" y="796.475"><tspan>IDEA同款数据库客户端</tspan></tspan></text></g></g><g id="4ea6ae3545c5"><rect style="fill:transparent;stroke:none" width="176" height="30" x="302" y="715" rx="1" ry="1"/><g><text fill="#0D0B22" align="top" anchor="start" font-family="微软雅黑" font-size="16" font-weight="normal" text-anchor="start"><tspan x="316" y="735.875"><tspan>MySQL Workbench</tspan></tspan></text></g></g><g id="e682e7a698ec"><rect style="fill:transparent;stroke:none" width="127" height="29" x="553.625" y="715.388" rx="1" ry="1"/><g><text fill="#0D0B22" align="top" anchor="start" font-family="微软雅黑" font-size="13" font-weight="400" text-anchor="start"><tspan x="562.625" y="735.475"><tspan>MySQL官方客户端</tspan></tspan></text></g></g><g id="602e740016dd"><rect style="fill:transparent;stroke:none" width="205" height="24" x="302" y="657.462" rx="1" ry="1"/><g><text fill="#0D0B22" align="top" anchor="start" font-family="微软雅黑" font-size="12" font-weight="normal" text-anchor="start"><tspan x="316" y="673.825"><tspan>AnotherRedisDesktopManager</tspan></tspan></text></g></g><g id="bb624db0b69e"><rect style="fill:transparent;stroke:none" width="90" height="29" x="583.038" y="655" rx="1" ry="1"/><g><text fill="#0D0B22" align="top" anchor="start" font-family="微软雅黑" font-size="13" font-weight="400" text-anchor="start"><tspan x="592.038" y="675.088"><tspan>Redis客户端</tspan></tspan></text></g></g><g id="f2f5d2ef31ce"><rect style="fill:transparent;stroke:none" width="78" height="30" x="302" y="594" rx="1" ry="1"/><g><text fill="#0D0B22" align="top" anchor="start" font-family="微软雅黑" font-size="16" font-weight="normal" text-anchor="start"><tspan x="316" y="614.875"><tspan>Arthas</tspan></tspan></text></g></g><g id="1d419b4f7c76"><rect style="fill:transparent;stroke:none" width="96" height="29" x="455.438" y="594.387" rx="1" ry="1"/><g><text fill="#0D0B22" align="top" anchor="start" font-family="微软雅黑" font-size="13" font-weight="400" text-anchor="start"><tspan x="464.438" y="614.475"><tspan>线上调试利器</tspan></tspan></text></g></g><g id="4f083f5485d1"><rect style="fill:transparent;stroke:none" width="50" height="30" x="302" y="509.55" rx="1" ry="1"/><g><text fill="#0D0B22" align="top" anchor="start" font-family="微软雅黑" font-size="16" font-weight="normal" text-anchor="start"><tspan x="316" y="530.425"><tspan>Git</tspan></tspan></text></g></g><g id="c317e9c77c0a"><rect style="fill:transparent;stroke:none" width="120" height="29" x="428.125" y="487" rx="1" ry="1"/><g><text fill="#0D0B22" align="top" anchor="start" font-family="微软雅黑" font-size="13" font-weight="400" text-anchor="start"><tspan x="437.125" y="507.087"><tspan>Gitlab搭建与使用</tspan></tspan></text></g></g><g id="ca65f3f46467"><rect style="fill:transparent;stroke:none" width="115" height="29" x="428.125" y="532.887" rx="1" ry="1"/><g><text fill="#0D0B22" align="top" anchor="start" font-family="微软雅黑" font-size="13" font-weight="400" text-anchor="start"><tspan x="437.125" y="552.975"><tspan>Gogs搭建与使用</tspan></tspan></text></g></g><g id="7dd0c24215cd"><rect style="fill:transparent;stroke:none" width="89" height="30" x="302" y="402.55" rx="1" ry="1"/><g><text fill="#0D0B22" align="top" anchor="start" font-family="微软雅黑" font-size="16" font-weight="normal" text-anchor="start"><tspan x="316" y="423.425"><tspan>Posman</tspan></tspan></text></g></g><g id="5c6586f1cbf0"><rect style="fill:transparent;stroke:none" width="91" height="29" x="467.063" y="380" rx="1" ry="1"/><g><text fill="#0D0B22" align="top" anchor="start" font-family="微软雅黑" font-size="13" font-weight="400" text-anchor="start"><tspan x="476.063" y="400.087"><tspan>API接口调试</tspan></tspan></text></g></g><g id="56417bdb2845"><rect style="fill:transparent;stroke:none" width="124" height="29" x="467.063" y="425.887" rx="1" ry="1"/><g><text fill="#0D0B22" align="top" anchor="start" font-family="微软雅黑" font-size="13" font-weight="400" text-anchor="start"><tspan x="476.063" y="445.975"><tspan>增强Swagger功能</tspan></tspan></text></g></g><g id="679e072ee9a5"><rect style="fill:transparent;stroke:none" width="86" height="30" x="302" y="296.55" rx="1" ry="1"/><g><text fill="#0D0B22" align="top" anchor="start" font-family="微软雅黑" font-size="16" font-weight="normal" text-anchor="start"><tspan x="316" y="317.425"><tspan>Navicat</tspan></tspan></text></g></g><g id="1f0789888077"><rect style="fill:transparent;stroke:none" width="135" height="29" x="463.338" y="274" rx="1" ry="1"/><g><text fill="#0D0B22" align="top" anchor="start" font-family="微软雅黑" font-size="13" font-weight="400" text-anchor="start"><tspan x="472.338" y="294.087"><tspan>数据备份与结构同步</tspan></tspan></text></g></g><g id="3b79c1e2944d"><rect style="fill:transparent;stroke:none" width="83" height="29" x="463.338" y="319.887" rx="1" ry="1"/><g><text fill="#0D0B22" align="top" anchor="start" font-family="微软雅黑" font-size="13" font-weight="400" text-anchor="start"><tspan x="472.338" y="339.975"><tspan>设计数据库</tspan></tspan></text></g></g><g id="8b24864bb852"><rect style="fill:transparent;stroke:none" width="65" height="30" x="302" y="121.387" rx="1" ry="1"/><g><text fill="#0D0B22" align="top" anchor="start" font-family="微软雅黑" font-size="16" font-weight="normal" text-anchor="start"><tspan x="316" y="142.262"><tspan>IDEA</tspan></tspan></text></g></g><g id="ff32438bbba8"><rect style="fill:transparent;stroke:none" width="70" height="29" x="442.95" y="30" rx="1" ry="1"/><g><text fill="#0D0B22" align="top" anchor="start" font-family="微软雅黑" font-size="13" font-weight="400" text-anchor="start"><tspan x="451.95" y="50.087"><tspan>常用设置</tspan></tspan></text></g></g><g id="213d8c007705"><rect style="fill:transparent;stroke:none" width="70" height="29" x="442.95" y="75.887" rx="1" ry="1"/><g><text fill="#0D0B22" align="top" anchor="start" font-family="微软雅黑" font-size="13" font-weight="400" text-anchor="start"><tspan x="451.95" y="95.975"><tspan>常用插件</tspan></tspan></text></g></g><g id="6878caec14bf"><rect style="fill:transparent;stroke:none" width="62" height="29" x="442.95" y="121.775" rx="1" ry="1"/><g><text fill="#0D0B22" align="top" anchor="start" font-family="微软雅黑" font-size="13" font-weight="400" text-anchor="start"><tspan x="451.95" y="141.862"><tspan>Git操作</tspan></tspan></text></g></g><g id="6a1059601fc6"><rect style="fill:transparent;stroke:none" width="170" height="29" x="442.95" y="167.662" rx="1" ry="1"/><g><text fill="#0D0B22" align="top" anchor="start" font-family="微软雅黑" font-size="13" font-weight="400" text-anchor="start"><tspan x="451.95" y="187.75"><tspan>Spring Boot项目使用技巧</tspan></tspan></text></g></g><g id="eb01d59a9aee"><rect style="fill:transparent;stroke:none" width="112" height="29" x="442.95" y="213.55" rx="1" ry="1"/><g><text fill="#0D0B22" align="top" anchor="start" font-family="微软雅黑" font-size="13" font-weight="400" text-anchor="start"><tspan x="451.95" y="233.637"><tspan>Debug调试技巧</tspan></tspan></text></g></g><g id="sdjakdjak0" transform="translate(302, 776)"><g id="subline_e78dcce8bd71" transform="translate(0.5,-0.5)"><path id="line_c38fdfaef4e9" fill="none" stroke="#BE49C4" stroke-linecap="square" stroke-width="3" d="M 96 32 L 96 32 M 96 32 C 142.32501220703125 32 134.16250610351562 31 172.32501220703125 31 L 324.32501220703125 31" p="e78dcce8bd71"/></g></g><g id="sdjakdjak1" transform="translate(302, 715)"><g id="subline_4ea6ae3545c5" transform="translate(0.5,-0.5)"><path id="line_e682e7a698ec" fill="none" stroke="#0F80C4" stroke-linecap="square" stroke-width="3" d="M 176 32 L 176 32 M 176 32 C 221.625 32 213.8125 31 251.625 31 L 378.625 31" p="4ea6ae3545c5"/></g></g><g id="sdjakdjak2" transform="translate(302, 655)"><g id="subline_602e740016dd" transform="translate(0.5,-0.5)"><path id="line_bb624db0b69e" fill="none" stroke="#F88A35" stroke-linecap="square" stroke-width="3" d="M 205 28 L 205 28 M 205 28 C 251.03753662109375 28 243.01876831054688 30 281.03753662109375 30 L 371.03753662109375 30" p="602e740016dd"/></g></g><g id="sdjakdjak3" transform="translate(302, 594)"><g id="subline_f2f5d2ef31ce" transform="translate(0.5,-0.5)"><path id="line_1d419b4f7c76" fill="none" stroke="#7549C5" stroke-linecap="square" stroke-width="3" d="M 78 32 L 78 32 M 78 32 C 123.4375 32 115.71875 31 153.4375 31 L 249.4375 31" p="f2f5d2ef31ce"/></g></g><g id="sdjakdjak4" transform="translate(302, 486.99999237060547)"><g id="subline_4f083f5485d1" transform="translate(0.5,-0.5)"><path id="line_c317e9c77c0a" fill="none" stroke="#FCB52A" stroke-linecap="square" stroke-width="3" d="M 50 55 L 50 55 M 50 55 C 96.125 55 88.0625 30 126.125 30 L 246.125 30" p="4f083f5485d1"/><path id="line_ca65f3f46467" fill="none" stroke="#FCB52A" stroke-linecap="square" stroke-width="3" d="M 50 55 L 50 55 M 50 55 C 96.125 55 88.0625 76 126.125 76 L 241.125 76" p="4f083f5485d1"/></g></g><g id="sdjakdjak5" transform="translate(302, 379.9999942779541)"><g id="subline_7dd0c24215cd" transform="translate(0.5,-0.5)"><path id="line_5c6586f1cbf0" fill="none" stroke="#80BA4C" stroke-linecap="square" stroke-width="3" d="M 89 55 L 89 55 M 89 55 C 135.0625 55 127.03125 30 165.0625 30 L 256.0625 30" p="7dd0c24215cd"/><path id="line_56417bdb2845" fill="none" stroke="#80BA4C" stroke-linecap="square" stroke-width="3" d="M 89 55 L 89 55 M 89 55 C 135.0625 55 127.03125 76 165.0625 76 L 289.0625 76" p="7dd0c24215cd"/></g></g><g id="sdjakdjak6" transform="translate(302, 273.99999237060547)"><g id="subline_679e072ee9a5" transform="translate(0.5,-0.5)"><path id="line_1f0789888077" fill="none" stroke="#FD5155" stroke-linecap="square" stroke-width="3" d="M 86 54 L 86 54 M 86 54 C 131.3375244140625 54 123.66876220703125 30 161.3375244140625 30 L 296.3375244140625 30" p="679e072ee9a5"/><path id="line_3b79c1e2944d" fill="none" stroke="#FD5155" stroke-linecap="square" stroke-width="3" d="M 86 54 L 86 54 M 86 54 C 131.3375244140625 54 123.66876220703125 76 161.3375244140625 76 L 244.3375244140625 76" p="679e072ee9a5"/></g></g><g id="sdjakdjak7" transform="translate(302, 30)"><g id="subline_8b24864bb852" transform="translate(0.5,-0.5)"><path id="line_ff32438bbba8" fill="none" stroke="#FA5465" stroke-linecap="square" stroke-width="3" d="M 65 123 L 65 123 M 65 123 C 110.95001220703125 123 102.97500610351562 30 140.95001220703125 30 L 210.95001220703125 30" p="8b24864bb852"/><path id="line_213d8c007705" fill="none" stroke="#FA5465" stroke-linecap="square" stroke-width="3" d="M 65 123 L 65 123 M 65 123 C 110.95001220703125 123 102.97500610351562 76 140.95001220703125 76 L 210.95001220703125 76" p="8b24864bb852"/><path id="line_6878caec14bf" fill="none" stroke="#FA5465" stroke-linecap="square" stroke-width="3" d="M 65 123 L 65 123 M 65 123 C 110.95001220703125 123 102.97500610351562 122 140.95001220703125 122 L 202.95001220703125 122" p="8b24864bb852"/><path id="line_6a1059601fc6" fill="none" stroke="#FA5465" stroke-linecap="square" stroke-width="3" d="M 65 123 L 65 123 M 65 123 C 110.95001220703125 123 102.97500610351562 168 140.95001220703125 168 L 310.95001220703125 168" p="8b24864bb852"/><path id="line_eb01d59a9aee" fill="none" stroke="#FA5465" stroke-linecap="square" stroke-width="3" d="M 65 123 L 65 123 M 65 123 C 110.95001220703125 123 102.97500610351562 214 140.95001220703125 214 L 252.95001220703125 214" p="8b24864bb852"/></g></g><g id="root"><rect style="fill:#fff;stroke:none" width="172" height="68" x="30" y="398" rx="7" ry="7"/><g><text fill="#2A2E36" align="top" anchor="start" font-family="微软雅黑" font-size="24" font-weight="normal" text-anchor="start"><tspan x="68" y="439.725"><tspan>开发工具</tspan></tspan></text></g></g></svg>